<svg width="17" height="12" viewBox="0 0 17 12" fill="none" xmlns="http://www.w3.org/2000/svg">
<path d="M15.9063 5.47581L11.6385 1.0018C11.5648 0.922376 11.4755 0.859018 11.3762 0.815691C11.2768 0.772363 11.1696 0.75 11.0613 0.75C10.9529 0.75 10.8457 0.772363 10.7464 0.815691C10.6471 0.859018 10.5578 0.922376 10.4841 1.0018C10.3304 1.16701 10.245 1.38425 10.245 1.60986C10.245 1.83546 10.3304 2.0527 10.4841 2.21791L13.3488 5.22085H0.957292C0.738148 5.23422 0.532362 5.33069 0.381917 5.49056C0.231472 5.65044 0.147705 5.86169 0.147705 6.0812C0.147705 6.30071 0.231472 6.51196 0.381917 6.67184C0.532362 6.83171 0.738148 6.92818 0.957292 6.94155H13.351L10.4905 9.94875C10.3368 10.114 10.2514 10.3312 10.2514 10.5568C10.2514 10.7824 10.3368 10.9997 10.4905 11.1649C10.5642 11.2443 10.6535 11.3076 10.7528 11.351C10.8521 11.3943 10.9593 11.4167 11.0677 11.4167C11.176 11.4167 11.2832 11.3943 11.3826 11.351C11.4819 11.3076 11.5712 11.2443 11.6449 11.1649L15.9127 6.69086C16.065 6.52479 16.1489 6.30736 16.1477 6.08208C16.1465 5.8568 16.0603 5.64027 15.9063 5.47581V5.47581Z" fill="#0071CE"/>
</svg>
