<svg width="17" height="11" viewBox="0 0 17 11" fill="none" xmlns="http://www.w3.org/2000/svg">
<path d="M16.1416 4.89183L11.8739 0.417816C11.8001 0.338392 11.7108 0.275033 11.6115 0.231706C11.5122 0.188379 11.405 0.166016 11.2966 0.166016C11.1883 0.166016 11.0811 0.188379 10.9818 0.231706C10.8824 0.275033 10.7931 0.338392 10.7194 0.417816C10.5658 0.583023 10.4803 0.800265 10.4803 1.02587C10.4803 1.25148 10.5658 1.46872 10.7194 1.63393L13.5842 4.63687H1.19264C0.973499 4.65024 0.767714 4.7467 0.617269 4.90658C0.466824 5.06646 0.383057 5.2777 0.383057 5.49722C0.383057 5.71673 0.466824 5.92797 0.617269 6.08785C0.767714 6.24773 0.973499 6.34419 1.19264 6.35756H13.5863L10.7258 9.36477C10.5722 9.52998 10.4867 9.74722 10.4867 9.97283C10.4867 10.1984 10.5722 10.4157 10.7258 10.5809C10.7995 10.6603 10.8888 10.7237 10.9882 10.767C11.0875 10.8103 11.1947 10.8327 11.303 10.8327C11.4114 10.8327 11.5186 10.8103 11.6179 10.767C11.7172 10.7237 11.8065 10.6603 11.8803 10.5809L16.148 6.10687C16.3003 5.9408 16.3842 5.72338 16.383 5.49809C16.3819 5.27281 16.2956 5.05628 16.1416 4.89183Z" fill="#0071CE"/>
</svg>
