<svg width="21" height="21" viewBox="0 0 21 21" fill="none" xmlns="http://www.w3.org/2000/svg">
<mask id="mask0_1401_9414" style="mask-type:alpha" maskUnits="userSpaceOnUse" x="0" y="0" width="21" height="21">
<rect x="0.157227" y="0.275757" width="20.6944" height="20" fill="#D9D9D9"/>
</mask>
<g mask="url(#mask0_1401_9414)">
<path d="M8.34727 11.3353H5.33105V7.78026H8.34934V4.96726C8.30921 4.33932 8.39949 3.70997 8.61487 3.11627C8.83024 2.52257 9.16636 1.97651 9.60342 1.51026C10.0414 1.09514 10.5632 0.771679 11.1363 0.560058C11.7093 0.348437 12.3214 0.25319 12.9342 0.280257C13.8516 0.267478 14.7688 0.319958 15.6783 0.437263V3.60026H13.7951C13.5328 3.57003 13.2669 3.59633 13.0165 3.67725C12.766 3.75816 12.5372 3.8917 12.3465 4.06826C12.1073 4.44212 11.9985 4.88023 12.0361 5.31826V7.78026H15.3668L14.8971 11.3353H12.0309V20.2803H8.34727V11.3353Z" fill="#0071CE"/>
</g>
</svg>
