<?xml version="1.0" encoding="utf-8"?>
<!-- Generator: Adobe Illustrator 27.0.0, SVG Export Plug-In . SVG Version: 6.00 Build 0)  -->
<svg version="1.1" id="Color" xmlns="http://www.w3.org/2000/svg" xmlns:xlink="http://www.w3.org/1999/xlink" x="0px" y="0px"
	 viewBox="0 0 1983 703.5" style="enable-background:new 0 0 1983 703.5;" xml:space="preserve">
<style type="text/css">
	.st0{fill:none;}
	.st1{fill:#0033A1;}
	.st2{fill:#D60EB5;}
	.st3{fill:#0071CE;}
	.st4{fill:#E17FD2;}
</style>
<rect class="st0" width="1983" height="703.5"/>
<path class="st1" d="M647.8,356.4c-18.2-5.1-27.5-14-27.5-26.4c0-15.3,14-26.1,33.2-26.1c19.9,0,32.4,10.6,33.2,27.5h48.5
	c-0.8-42.9-33.2-71.6-81.1-71.6s-82.6,30.1-82.6,71.5c0,32.9,20.9,55.9,62,68.7l29.7,8.3c22,6.3,31.1,14.9,30.6,29.4
	c-0.3,16.7-14.9,27.5-37.5,27.5c-24.5,0-36.7-14.5-38.1-29.4h-49c0.9,42.9,36.4,72.3,87.1,72.3c41,0,85.7-22,86.4-70.1
	c1-35-21.2-59.4-66-72.3L647.8,356.4L647.8,356.4z"/>
<path class="st1" d="M838.4,338.1c-46.7,1.3-83.6,40.2-82.4,86.9c1.2,45,37.4,81.1,82.4,82.4c13.6,0,37.3-6.6,46.9-21.3l3.1-4.7V504
	h45.7V341.6h-45.6v22l-3.1-4.3C871,338.7,841.7,338.1,838.4,338.1L838.4,338.1z M843.3,463.8c-20.8,0-43.2-15.7-43.2-41
	s22.4-41,43.2-41s41.7,14.4,41.7,41S863.5,463.8,843.3,463.8L843.3,463.8z"/>
<path class="st1" d="M1007.1,341.6h-45.7v162.6h45.7L1007.1,341.6L1007.1,341.6z"/>
<path class="st1" d="M1080.7,263h-45.9v241.1h45.9V263z"/>
<path class="st1" d="M1205.8,262.8H1107v241.3h49v-84.5h49.9c58.2,0,78.9-42.1,78.9-78.3C1284.8,287.1,1245.1,262.8,1205.8,262.8
	L1205.8,262.8z M1203.3,377.5h-47.4v-72.3h49c21.4,0,31.1,21.1,31.1,36.1c0,17.9-12.2,36.2-32.6,36.2H1203.3z"/>
<path class="st1" d="M1366,338.1c-48.8,0-84.3,35.4-84.3,84.3S1317,507,1366,507s84.5-35.6,84.5-84.6S1415,338.1,1366,338.1z
	 M1366,462c-21.8,0.1-39.6-17.4-39.7-39.2s17.4-39.6,39.2-39.7c21.8-0.1,39.6,17.4,39.7,39.2c0.9,21.1-15.4,38.9-36.5,39.8
	C1367.8,462,1366.9,462,1366,462L1366,462z"/>
<path class="st1" d="M1513.7,341.6h-45.7v162.6h45.7V341.6z"/>
<path class="st1" d="M1589.7,364.9l-3.1,5.8v-29.1h-46.2v162.5h45.9V418c0-23.1,11.2-35.4,32.2-35.4c18.9,0,30.4,13.3,30.4,34.6V504
	h46.1v-97.4c0.2-44.2-20.8-68.7-58.8-68.7C1617,337.9,1599.2,348.1,1589.7,364.9L1589.7,364.9L1589.7,364.9z"/>
<path class="st1" d="M984.3,318.5c15.8,0,28.6-12.7,28.6-28.5c0-15.8-12.7-28.6-28.5-28.6s-28.6,12.7-28.6,28.5c0,0,0,0.1,0,0.1
	c0,3.7,0.7,7.4,2.1,10.9C962.4,311.5,972.8,318.5,984.3,318.5L984.3,318.5L984.3,318.5z"/>
<path class="st1" d="M1490.7,318.5c15.8,0,28.6-12.7,28.6-28.5c0-15.8-12.7-28.6-28.5-28.6c-15.8,0-28.6,12.7-28.6,28.5
	c0,0,0,0.1,0,0.1c0,3.7,0.7,7.4,2.1,10.9C1468.8,311.5,1479.2,318.5,1490.7,318.5L1490.7,318.5L1490.7,318.5z"/>
<path class="st1" d="M1814.3,341.5h-32v-63.4h-45.9v63.4h-30.6v38.7h30.6v123.9h45.9V380.2h32V341.5z"/>
<polygon class="st1" points="379.8,172.7 423.8,435.8 168.7,435.8 "/>
<polygon class="st2" points="379.8,172.7 536,435.8 423.8,435.8 "/>
<polygon class="st3" points="168.7,435.8 423.8,435.8 439.8,530.8 "/>
<polygon class="st4" points="423.8,435.8 536,435.8 439.8,530.8 "/>
<path class="st1" d="M1826.4,473c2.7,1.6,4.8,3.7,6.3,6.5c1.5,2.8,2.3,5.9,2.3,9.3s-0.8,6.5-2.3,9.2c-1.5,2.7-3.6,4.9-6.3,6.4
	c-2.7,1.6-5.7,2.3-9.1,2.3s-6.5-0.8-9.2-2.3c-2.7-1.6-4.8-3.7-6.3-6.4c-1.5-2.7-2.3-5.8-2.3-9.2s0.8-6.5,2.3-9.3
	c1.5-2.8,3.6-4.9,6.3-6.5c2.7-1.6,5.8-2.3,9.2-2.3S1823.7,471.4,1826.4,473z M1827.8,499.5c2.7-2.8,4-6.4,4-10.8s-1.3-8-4-10.8
	c-2.7-2.8-6.2-4.2-10.5-4.2c-4.4,0-7.9,1.4-10.6,4.2c-2.7,2.8-4,6.4-4,10.8s1.3,8,4,10.8c2.7,2.8,6.2,4.2,10.6,4.2
	C1821.6,503.8,1825.1,502.3,1827.8,499.5z M1823.8,488.5c-0.8,1-2,1.6-3.5,1.9l5.4,7.7l-4.6,0.1l-5-7.7h-2.1v7.7h-3.9v-19.4h8.4
	c2,0,3.6,0.5,4.7,1.6c1.2,1.1,1.8,2.5,1.8,4.3C1825.1,486.3,1824.7,487.5,1823.8,488.5L1823.8,488.5z M1814.1,487.4h4.2
	c0.8,0,1.5-0.2,2.1-0.6c0.5-0.4,0.8-1,0.8-1.9c0-0.8-0.3-1.5-0.8-1.8c-0.5-0.4-1.2-0.6-2.1-0.6h-4.2V487.4z"/>
</svg>
