<svg width="388" height="373" viewBox="0 0 388 373" fill="none" xmlns="http://www.w3.org/2000/svg">
<path d="M224.238 216.03C314.393 147.896 373.943 74.7551 357.249 52.6646C340.554 30.5741 253.935 67.8996 163.781 136.033C73.6262 204.167 14.0753 277.309 30.7701 299.399C47.4649 321.49 134.083 284.164 224.238 216.03Z" stroke="#D0EBF6" stroke-miterlimit="10"/>
<path d="M331.329 338.093C351.858 319.512 307.024 236.531 231.189 152.75C155.355 68.9693 77.2369 16.1151 56.7082 34.6968C36.1795 53.2785 81.0137 136.26 156.848 220.04C232.683 303.821 310.801 356.675 331.329 338.093Z" stroke="#D0EBF6" stroke-miterlimit="10"/>
<path d="M194.015 322.403C269.133 322.403 330.029 261.507 330.029 186.388C330.029 111.269 269.133 50.3735 194.015 50.3735C118.896 50.3735 57.9996 111.269 57.9996 186.388C57.9996 261.507 118.896 322.403 194.015 322.403Z" stroke="#0033A1" stroke-width="0.25" stroke-miterlimit="10"/>
<mask id="mask0_513_4157" style="mask-type:luminance" maskUnits="userSpaceOnUse" x="57" y="50" width="274" height="273">
<path d="M194.015 322.403C269.133 322.403 330.029 261.507 330.029 186.388C330.029 111.269 269.133 50.3735 194.015 50.3735C118.896 50.3735 57.9996 111.269 57.9996 186.388C57.9996 261.507 118.896 322.403 194.015 322.403Z" fill="white"/>
</mask>
<g mask="url(#mask0_513_4157)">
<path d="M197.908 146.064L195.84 146.248C196.877 146.151 197.536 145.091 197.163 144.117L195.38 139.453L200.524 140.204C201.454 140.33 202.248 139.54 202.132 138.611L209.852 95.0853C209.769 94.4411 209.266 93.9326 208.626 93.8454L174.69 88.9102C174.061 88.8279 173.572 88.3242 173.499 87.6946L173.262 85.6363C173.213 85.2101 172.879 84.8711 172.453 84.8129L153.613 82.1444C153.003 82.062 152.48 82.5851 152.562 83.2002L151.332 92.005L131.485 92.1116C130.865 92.1116 130.419 92.7073 130.589 93.2981L133.214 102.699L120.079 103.876L118.699 104.001C118.093 104.055 117.546 104.437 117.333 105.009C117.149 105.503 117.144 106.06 117.343 106.573L134.357 151.062C134.705 151.978 135.621 152.559 136.599 152.486L137.921 152.384L137.902 152.782C137.844 153.973 138.643 155.039 139.81 155.31L187.883 166.454C188.15 166.517 188.426 166.531 188.697 166.502L244.848 160.661C246.059 160.535 246.994 159.547 247.057 158.332L247.124 157.019L197.923 146.054L197.908 146.064Z" fill="url(#paint0_linear_513_4157)"/>
<path d="M311.151 125.292L309.01 124.721L311.877 112.758C313.156 107.416 309.863 102.045 304.521 100.761C299.179 99.4829 293.808 102.776 292.524 108.118L289.778 119.577L288.892 119.335C288.422 119.204 287.938 119.112 287.453 119.059L283.947 118.676C282.717 118.541 281.574 119.345 281.293 120.551L276.702 140.044C276.416 141.25 277.079 142.48 278.242 142.907L281.584 144.137C282.019 144.296 282.465 144.422 282.92 144.51L286.659 145.241L305.538 149.12C306.705 149.362 307.853 148.626 308.124 147.469L312.73 127.917C313.001 126.759 312.304 125.592 311.151 125.287V125.292ZM296.796 109.465C297.503 106.52 300.462 104.704 303.407 105.411C306.351 106.118 308.168 109.077 307.46 112.022L304.69 123.573L294.093 120.754L296.801 109.465H296.796Z" fill="url(#paint1_linear_513_4157)"/>
<path d="M412.479 153.847C412.416 151.474 410.402 149.59 408.028 149.629C403.694 149.697 395.402 147.096 386.467 127.883C373.589 100.185 363.399 85.0164 337.953 93.1335C320.808 98.6014 322.363 121.694 325.201 136.175L315.863 134.073C314.532 134.387 314.062 136.824 314.88 137.676L315.81 137.908C316.706 138.141 317.312 138.974 317.263 139.894L317.157 141.977L318.721 142.364L320.038 142.693L320.866 140.921C321.215 140.17 322 139.734 322.804 139.802L326.194 140.732C326.702 142.873 327.192 144.66 327.569 145.943C328.577 149.416 328.95 153.043 328.611 156.642C328.223 160.739 326.993 166.013 323.845 171.767C322.387 174.435 322.469 177.695 324.077 180.271C325.811 183.051 328.804 185.952 333.836 186.306C334.035 186.32 334.224 186.325 334.408 186.33C334.456 186.33 334.505 186.33 334.553 186.33C334.708 186.33 334.853 186.33 334.999 186.325C335.028 186.325 335.052 186.325 335.081 186.325C335.246 186.316 335.401 186.306 335.546 186.287C335.585 186.287 335.619 186.277 335.657 186.272C335.778 186.257 335.89 186.238 336.001 186.219C336.03 186.214 336.064 186.209 336.093 186.199C336.224 186.17 336.35 186.141 336.471 186.107C336.495 186.098 336.519 186.093 336.544 186.083C336.64 186.054 336.733 186.02 336.82 185.986C336.849 185.977 336.878 185.962 336.902 185.952C337.009 185.909 337.105 185.86 337.197 185.807C337.207 185.802 337.217 185.797 337.226 185.788C337.309 185.739 337.386 185.691 337.464 185.638C337.488 185.623 337.507 185.604 337.532 185.589C337.604 185.536 337.677 185.478 337.74 185.415C337.745 185.41 337.754 185.405 337.759 185.395C337.827 185.328 337.895 185.26 337.953 185.187C337.967 185.168 337.982 185.148 338.001 185.129C338.05 185.066 338.093 185.003 338.137 184.94C338.147 184.926 338.156 184.911 338.166 184.897C338.215 184.819 338.258 184.737 338.302 184.654C338.311 184.635 338.321 184.616 338.331 184.596C338.365 184.528 338.394 184.456 338.418 184.383C338.428 184.364 338.432 184.34 338.442 184.32C338.471 184.233 338.5 184.141 338.524 184.049C338.524 184.034 338.534 184.015 338.534 184.001C338.553 183.923 338.573 183.841 338.587 183.758C338.592 183.734 338.597 183.705 338.602 183.681C338.621 183.584 338.636 183.482 338.646 183.386C338.646 183.386 338.646 183.381 338.646 183.376C338.655 183.279 338.665 183.177 338.67 183.076C338.67 183.046 338.67 183.017 338.675 182.993C338.679 182.901 338.684 182.809 338.684 182.717C338.684 182.703 338.684 182.688 338.684 182.674C338.684 182.567 338.684 182.46 338.684 182.354C338.684 182.325 338.684 182.296 338.684 182.267C338.684 182.18 338.679 182.088 338.675 182C338.675 181.976 338.675 181.952 338.675 181.928C338.67 181.816 338.665 181.71 338.655 181.598C338.655 181.574 338.655 181.545 338.65 181.521C338.646 181.429 338.636 181.337 338.631 181.245C338.631 181.216 338.631 181.192 338.626 181.162C338.616 181.051 338.607 180.94 338.597 180.828C338.597 180.809 338.597 180.794 338.592 180.775C338.583 180.659 338.573 180.543 338.558 180.426C338.549 180.329 338.539 180.228 338.529 180.131C338.529 180.112 338.529 180.087 338.524 180.068C338.515 179.961 338.505 179.855 338.495 179.748C338.495 179.719 338.495 179.69 338.491 179.661C338.486 179.569 338.476 179.482 338.471 179.39C338.471 179.371 338.471 179.346 338.471 179.327C338.466 179.22 338.462 179.119 338.457 179.012C338.457 178.988 338.457 178.964 338.457 178.935C338.457 178.852 338.457 178.77 338.452 178.688C338.452 178.663 338.452 178.634 338.452 178.61C338.452 178.508 338.452 178.412 338.457 178.315C338.457 178.295 338.457 178.281 338.457 178.261C338.457 178.179 338.466 178.102 338.471 178.024C338.471 178 338.471 177.971 338.476 177.947C338.486 177.855 338.495 177.763 338.51 177.671L338.554 177.448C338.597 177.254 338.655 177.07 338.733 176.901C338.762 176.842 338.791 176.784 338.82 176.731C339.038 176.344 339.377 176.038 339.871 175.854C340.297 175.695 340.844 175.622 341.542 175.651C348.981 175.99 352.502 185.134 356.875 185.303C356.982 185.303 357.083 185.303 357.18 185.294C357.2 185.294 357.219 185.294 357.238 185.289C357.267 185.289 357.292 185.279 357.321 185.274C357.379 185.265 357.437 185.255 357.49 185.24C357.505 185.24 357.514 185.231 357.529 185.231C357.539 185.231 357.548 185.226 357.563 185.221C357.587 185.216 357.616 185.207 357.64 185.202C357.737 185.168 357.829 185.134 357.916 185.085C357.931 185.076 357.95 185.066 357.965 185.056C358.038 185.018 358.1 184.969 358.168 184.921C358.192 184.901 358.212 184.887 358.236 184.868C358.299 184.814 358.357 184.756 358.415 184.698C358.425 184.683 358.439 184.674 358.454 184.659C358.522 184.582 358.585 184.499 358.643 184.417C358.657 184.393 358.672 184.369 358.686 184.349C358.73 184.281 358.774 184.209 358.812 184.131C358.827 184.102 358.841 184.078 358.856 184.049C358.904 183.947 358.953 183.846 359.001 183.739C359.001 183.739 359.001 183.734 359.001 183.729C359.045 183.623 359.084 183.507 359.122 183.39C359.132 183.356 359.147 183.323 359.156 183.284C359.185 183.192 359.214 183.095 359.239 182.998C359.248 182.969 359.258 182.935 359.263 182.906C359.282 182.838 359.297 182.77 359.311 182.703C359.321 182.669 359.326 182.64 359.335 182.606C359.335 182.596 359.34 182.582 359.345 182.572C359.345 182.552 359.355 182.533 359.36 182.519C359.364 182.494 359.369 182.465 359.374 182.441C359.389 182.378 359.398 182.32 359.413 182.257C359.423 182.213 359.432 182.165 359.437 182.121C359.437 182.107 359.442 182.097 359.447 182.083C359.447 182.063 359.457 182.044 359.457 182.025C359.461 181.991 359.466 181.962 359.476 181.928C359.486 181.879 359.49 181.836 359.5 181.787C359.51 181.729 359.52 181.666 359.529 181.603C359.529 181.584 359.534 181.564 359.539 181.545C359.544 181.511 359.549 181.477 359.553 181.443C359.563 181.38 359.573 181.313 359.582 181.245C359.592 181.196 359.597 181.148 359.607 181.104C359.607 181.09 359.611 181.07 359.616 181.056C359.626 181.003 359.631 180.949 359.641 180.896C359.645 180.848 359.655 180.799 359.66 180.751C359.665 180.702 359.674 180.654 359.679 180.606C359.684 180.562 359.689 180.523 359.699 180.48C359.699 180.446 359.708 180.412 359.713 180.378C359.728 180.276 359.742 180.174 359.757 180.073C359.757 180.063 359.757 180.049 359.757 180.039C359.776 179.903 359.796 179.768 359.815 179.632C359.82 179.588 359.829 179.545 359.834 179.501C359.854 179.385 359.868 179.269 359.888 179.148C359.892 179.109 359.902 179.065 359.907 179.027C359.931 178.886 359.955 178.746 359.98 178.61C359.984 178.576 359.994 178.542 359.999 178.508C359.999 178.504 359.999 178.499 359.999 178.494C360.023 178.373 360.043 178.257 360.067 178.136C360.076 178.092 360.086 178.048 360.096 178.005C360.12 177.884 360.149 177.763 360.178 177.642C360.178 177.642 360.178 177.632 360.178 177.627C360.188 177.593 360.193 177.564 360.202 177.53C360.231 177.404 360.265 177.283 360.304 177.162C360.314 177.128 360.323 177.089 360.338 177.056C360.367 176.954 360.401 176.852 360.435 176.75C360.445 176.721 360.454 176.692 360.464 176.668C360.464 176.658 360.474 176.644 360.478 176.634C360.522 176.518 360.566 176.402 360.614 176.29C360.614 176.281 360.624 176.271 360.629 176.261C360.682 176.145 360.735 176.029 360.793 175.922C360.808 175.893 360.822 175.869 360.837 175.84C360.895 175.738 360.953 175.636 361.021 175.54C361.021 175.535 361.031 175.525 361.035 175.52C361.103 175.423 361.176 175.327 361.253 175.239C361.273 175.215 361.292 175.196 361.311 175.172C361.389 175.089 361.466 175.007 361.549 174.934C361.549 174.934 361.554 174.929 361.558 174.925C361.646 174.847 361.738 174.779 361.839 174.716C361.864 174.702 361.888 174.687 361.912 174.668C362.009 174.61 362.111 174.552 362.222 174.503C362.222 174.503 362.227 174.503 362.232 174.503C362.343 174.455 362.459 174.416 362.58 174.382C362.609 174.372 362.643 174.368 362.672 174.358C362.798 174.329 362.929 174.3 363.065 174.285C368.005 173.719 371.468 180.475 376.127 180.136C379.27 179.908 381.483 173.782 384.249 169.839C393.712 176.295 399.979 173.583 402.168 172.178C403.054 171.878 404.004 171.355 405.035 170.537C413.264 164.013 404.459 160.177 404.459 160.177C404.459 160.177 412.644 160.071 412.474 153.857L412.479 153.847ZM338.51 177.656C338.52 177.583 338.534 177.511 338.549 177.443C338.534 177.516 338.52 177.588 338.51 177.656Z" fill="url(#paint2_linear_513_4157)"/>
<path d="M306.535 290.671L306.409 290.298L285.831 229.187C285.579 228.441 284.843 227.971 284.058 228.059L270.866 229.512L261.654 220.077L261.01 218.76C262.337 217.515 263.189 216.711 263.189 216.711C263.189 216.711 265.286 214.701 263.785 212.914C262.158 210.982 260.07 212.624 259.785 212.866C260.09 212.599 262.322 210.556 260.613 208.604C259.232 207.025 257.779 207.732 257.145 208.178C257.833 207.567 259.242 205.974 257.673 204.226C255.663 201.988 253.387 203.848 253.387 203.848C253.387 203.848 255.358 201.731 253.014 199.596C250.675 197.465 245.153 201.731 245.153 201.731C245.153 201.731 243.09 199.523 238.504 200.215C236.659 200.496 234.77 200.269 233.075 199.968C232.871 199.925 232.14 199.78 230.847 199.513C230.227 199.387 229.728 199.334 229.321 199.315C229.268 199.31 229.215 199.31 229.161 199.305C229.152 199.305 229.142 199.305 229.137 199.305C228.919 199.29 228.716 199.29 228.532 199.305C228.527 199.305 228.522 199.305 228.512 199.305C228.445 199.31 228.377 199.315 228.319 199.324C228.275 199.329 228.246 199.334 228.246 199.334L228.236 199.344C228.198 199.353 228.164 199.363 228.125 199.373C228.096 199.378 228.081 199.382 228.081 199.382C227.936 199.426 227.8 199.484 227.699 199.571C226.546 200.525 227.18 202.346 228.062 203.577C228.183 203.746 228.309 203.901 228.435 204.042C228.435 204.042 226.667 203.446 225.965 205.732C225.437 207.441 226.275 208.303 226.735 208.628C226.89 208.739 227.001 208.788 227.001 208.788C227.001 208.788 225.209 208.86 224.594 210.812C223.916 212.972 224.89 213.878 225.839 214.367C225.858 214.377 225.849 214.406 225.829 214.401C225.829 214.401 223.63 213.796 223.088 216.58C222.55 219.365 225.563 219.772 225.563 219.772C225.563 219.772 223.049 219.481 222.599 222.203C222.144 224.92 224.236 225.821 225.33 225.971C225.33 225.971 225.398 225.986 225.514 226L225.413 226.213L218.192 235.319L200.509 237.27L200.054 237.319C199.042 237.43 198.141 238.016 197.628 238.898L197.187 239.648C196.814 240.292 196.736 241.062 196.969 241.765L217.61 303.05C217.998 304.198 219.131 304.919 220.332 304.789L303.939 295.567C304.748 295.48 305.47 295.01 305.882 294.303L306.221 293.717C306.758 292.792 306.874 291.678 306.531 290.661L306.535 290.671Z" fill="url(#paint3_linear_513_4157)"/>
<path d="M188.459 272.107C188.304 271.996 188.087 271.947 187.825 271.952C188.072 271.937 188.29 271.986 188.455 272.102L184.154 268.804C183.752 268.513 183.093 268.634 182.275 269.075L155.652 251.01C155.197 250.686 154.383 250.942 153.376 251.63L151.104 249.887C150.882 249.727 150.557 249.741 150.155 249.891L142.028 244.08C142.028 243.683 141.936 243.392 141.728 243.242C141.52 243.092 141.21 243.097 140.837 243.227C141.21 243.097 141.52 243.087 141.728 243.237L138.9 241.067C138.948 240.53 138.856 240.133 138.609 239.924C138.624 239.934 138.643 239.939 138.657 239.949L135.49 237.517C137.824 232.839 139.35 227.705 139.883 222.256C139.951 221.554 139.999 220.852 140.033 220.15C140.13 219.515 140.212 218.881 140.275 218.237C142.566 194.738 121.876 173.486 94.0618 170.779C66.2476 168.067 41.8478 184.921 39.557 208.42C39.4941 209.064 39.4505 209.703 39.4214 210.342C39.3197 211.035 39.2325 211.732 39.1647 212.439C36.656 238.161 57.1715 261.205 84.9857 263.917C100.372 265.419 114.766 260.377 124.98 251.223C125.014 251.262 125.048 251.306 125.092 251.34L128.593 254.028C128.511 253.969 128.448 253.882 128.395 253.781C128.438 253.834 128.482 253.887 128.535 253.926C128.85 254.153 129.354 254.071 129.979 253.747L132.71 255.844C132.468 255.669 132.376 255.306 132.415 254.812H132.424C132.39 255.306 132.482 255.66 132.725 255.834C132.967 256.008 133.33 255.979 133.78 255.79L141.786 261.515C141.757 261.985 141.854 262.324 142.086 262.493L144.416 264.28C144.15 265.346 144.203 266.116 144.629 266.421L171.392 284.583C171.32 285.309 171.436 285.842 171.785 286.094L176.085 289.392C175.988 289.324 175.916 289.228 175.853 289.116C175.93 289.218 176.008 289.31 176.105 289.378C177.383 290.293 181.185 287.169 184.595 282.399C188.004 277.628 189.733 273.022 188.45 272.107H188.459Z" fill="url(#paint4_linear_513_4157)"/>
</g>
<g filter="url(#filter0_d_513_4157)">
<path d="M194.015 322.403C269.133 322.403 330.029 261.507 330.029 186.388C330.029 111.269 269.133 50.3735 194.015 50.3735C118.896 50.3735 57.9996 111.269 57.9996 186.388C57.9996 261.507 118.896 322.403 194.015 322.403Z" fill="url(#paint5_radial_513_4157)" shape-rendering="crispEdges"/>
<path d="M194.015 322.403C269.133 322.403 330.029 261.507 330.029 186.388C330.029 111.269 269.133 50.3735 194.015 50.3735C118.896 50.3735 57.9996 111.269 57.9996 186.388C57.9996 261.507 118.896 322.403 194.015 322.403Z" stroke="#0033A1" stroke-width="0.25" stroke-miterlimit="10" shape-rendering="crispEdges"/>
</g>
<path d="M28.7761 254.861C36.128 256.972 37.8424 258.687 39.954 266.039C42.0657 258.687 43.7801 256.972 51.132 254.861C43.7801 252.749 42.0657 251.035 39.954 243.683C37.8424 251.035 36.128 252.749 28.7761 254.861Z" fill="white"/>
<path d="M327.69 105.464C335.042 107.576 336.757 109.29 338.868 116.642C340.98 109.29 342.694 107.576 350.046 105.464C342.694 103.353 340.98 101.638 338.868 94.2863C336.757 101.638 335.042 103.353 327.69 105.464Z" fill="white"/>
<g filter="url(#filter1_d_513_4157)">
<path d="M311.03 57.2265C314.815 57.2265 317.883 54.1583 317.883 50.3735C317.883 46.5887 314.815 43.5204 311.03 43.5204C307.245 43.5204 304.177 46.5887 304.177 50.3735C304.177 54.1583 307.245 57.2265 311.03 57.2265Z" fill="#D0EBF6"/>
</g>
<g filter="url(#filter2_d_513_4157)">
<path d="M56.7017 39.2584C59.224 39.2584 61.2687 37.2137 61.2687 34.6914C61.2687 32.169 59.224 30.1243 56.7017 30.1243C54.1793 30.1243 52.1346 32.169 52.1346 34.6914C52.1346 37.2137 54.1793 39.2584 56.7017 39.2584Z" fill="white"/>
</g>
<g filter="url(#filter3_d_513_4157)">
<path d="M51.7229 310.329C54.2452 310.329 56.29 308.284 56.29 305.762C56.29 303.24 54.2452 301.195 51.7229 301.195C49.2006 301.195 47.1558 303.24 47.1558 305.762C47.1558 308.284 49.2006 310.329 51.7229 310.329Z" fill="#FF00FF"/>
</g>
<g filter="url(#filter4_d_513_4157)">
<path d="M360.062 66.3607C362.584 66.3607 364.629 64.3159 364.629 61.7936C364.629 59.2713 362.584 57.2265 360.062 57.2265C357.539 57.2265 355.495 59.2713 355.495 61.7936C355.495 64.3159 357.539 66.3607 360.062 66.3607Z" fill="#FF00FF"/>
</g>
<defs>
<filter id="filter0_d_513_4157" x="7.87463" y="0.248474" width="372.28" height="372.28" filterUnits="userSpaceOnUse" color-interpolation-filters="sRGB">
<feFlood flood-opacity="0" result="BackgroundImageFix"/>
<feColorMatrix in="SourceAlpha" type="matrix" values="0 0 0 0 0 0 0 0 0 0 0 0 0 0 0 0 0 0 127 0" result="hardAlpha"/>
<feOffset/>
<feGaussianBlur stdDeviation="25"/>
<feComposite in2="hardAlpha" operator="out"/>
<feColorMatrix type="matrix" values="0 0 0 0 0 0 0 0 0 0.2 0 0 0 0 0.631373 0 0 0 0.4 0"/>
<feBlend mode="normal" in2="BackgroundImageFix" result="effect1_dropShadow_513_4157"/>
<feBlend mode="normal" in="SourceGraphic" in2="effect1_dropShadow_513_4157" result="shape"/>
</filter>
<filter id="filter1_d_513_4157" x="288.177" y="27.5204" width="45.7062" height="45.7061" filterUnits="userSpaceOnUse" color-interpolation-filters="sRGB">
<feFlood flood-opacity="0" result="BackgroundImageFix"/>
<feColorMatrix in="SourceAlpha" type="matrix" values="0 0 0 0 0 0 0 0 0 0 0 0 0 0 0 0 0 0 127 0" result="hardAlpha"/>
<feOffset/>
<feGaussianBlur stdDeviation="8"/>
<feColorMatrix type="matrix" values="0 0 0 0 1 0 0 0 0 1 0 0 0 0 1 0 0 0 0.75 0"/>
<feBlend mode="normal" in2="BackgroundImageFix" result="effect1_dropShadow_513_4157"/>
<feBlend mode="normal" in="SourceGraphic" in2="effect1_dropShadow_513_4157" result="shape"/>
</filter>
<filter id="filter2_d_513_4157" x="36.1346" y="14.1243" width="41.1342" height="41.1342" filterUnits="userSpaceOnUse" color-interpolation-filters="sRGB">
<feFlood flood-opacity="0" result="BackgroundImageFix"/>
<feColorMatrix in="SourceAlpha" type="matrix" values="0 0 0 0 0 0 0 0 0 0 0 0 0 0 0 0 0 0 127 0" result="hardAlpha"/>
<feOffset/>
<feGaussianBlur stdDeviation="8"/>
<feColorMatrix type="matrix" values="0 0 0 0 1 0 0 0 0 1 0 0 0 0 1 0 0 0 0.75 0"/>
<feBlend mode="normal" in2="BackgroundImageFix" result="effect1_dropShadow_513_4157"/>
<feBlend mode="normal" in="SourceGraphic" in2="effect1_dropShadow_513_4157" result="shape"/>
</filter>
<filter id="filter3_d_513_4157" x="31.1558" y="285.195" width="41.1342" height="41.1342" filterUnits="userSpaceOnUse" color-interpolation-filters="sRGB">
<feFlood flood-opacity="0" result="BackgroundImageFix"/>
<feColorMatrix in="SourceAlpha" type="matrix" values="0 0 0 0 0 0 0 0 0 0 0 0 0 0 0 0 0 0 127 0" result="hardAlpha"/>
<feOffset/>
<feGaussianBlur stdDeviation="8"/>
<feColorMatrix type="matrix" values="0 0 0 0 1 0 0 0 0 1 0 0 0 0 1 0 0 0 0.75 0"/>
<feBlend mode="normal" in2="BackgroundImageFix" result="effect1_dropShadow_513_4157"/>
<feBlend mode="normal" in="SourceGraphic" in2="effect1_dropShadow_513_4157" result="shape"/>
</filter>
<filter id="filter4_d_513_4157" x="339.495" y="41.2265" width="41.1342" height="41.1342" filterUnits="userSpaceOnUse" color-interpolation-filters="sRGB">
<feFlood flood-opacity="0" result="BackgroundImageFix"/>
<feColorMatrix in="SourceAlpha" type="matrix" values="0 0 0 0 0 0 0 0 0 0 0 0 0 0 0 0 0 0 127 0" result="hardAlpha"/>
<feOffset/>
<feGaussianBlur stdDeviation="8"/>
<feColorMatrix type="matrix" values="0 0 0 0 1 0 0 0 0 1 0 0 0 0 1 0 0 0 0.75 0"/>
<feBlend mode="normal" in2="BackgroundImageFix" result="effect1_dropShadow_513_4157"/>
<feBlend mode="normal" in="SourceGraphic" in2="effect1_dropShadow_513_4157" result="shape"/>
</filter>
<linearGradient id="paint0_linear_513_4157" x1="117.188" y1="124.333" x2="247.11" y2="124.333" gradientUnits="userSpaceOnUse">
<stop stop-color="#0033A1"/>
<stop offset="1"/>
</linearGradient>
<linearGradient id="paint1_linear_513_4157" x1="276.639" y1="124.832" x2="312.788" y2="124.832" gradientUnits="userSpaceOnUse">
<stop stop-color="#0033A1"/>
<stop offset="1"/>
</linearGradient>
<linearGradient id="paint2_linear_513_4157" x1="314.483" y1="138.645" x2="412.479" y2="138.645" gradientUnits="userSpaceOnUse">
<stop stop-color="#0033A1"/>
<stop offset="1"/>
</linearGradient>
<linearGradient id="paint3_linear_513_4157" x1="196.843" y1="251.901" x2="306.734" y2="251.901" gradientUnits="userSpaceOnUse">
<stop stop-color="#0033A1"/>
<stop offset="1"/>
</linearGradient>
<linearGradient id="paint4_linear_513_4157" x1="38.9613" y1="230.01" x2="188.881" y2="230.01" gradientUnits="userSpaceOnUse">
<stop stop-color="#0033A1"/>
<stop offset="1"/>
</linearGradient>
<radialGradient id="paint5_radial_513_4157" cx="0" cy="0" r="1" gradientUnits="userSpaceOnUse" gradientTransform="translate(194.014 186.388) scale(170.944)">
<stop offset="0.557692" stop-color="white" stop-opacity="0"/>
<stop offset="1" stop-color="#0071CE" stop-opacity="0.8"/>
</radialGradient>
</defs>
</svg>
