<?xml version="1.0" encoding="utf-8"?>
<!-- Generator: Adobe Illustrator 27.0.0, SVG Export Plug-In . SVG Version: 6.00 Build 0)  -->
<svg version="1.1" id="Layer_1" xmlns="http://www.w3.org/2000/svg" xmlns:xlink="http://www.w3.org/1999/xlink" x="0px" y="0px"
	 viewBox="0 0 340 283" style="enable-background:new 0 0 340 283;" xml:space="preserve">
<style type="text/css">
	.st0{fill:none;stroke:#54C0E8;stroke-width:0.5;stroke-miterlimit:10;}
	.st1{fill:#FFFFFF;filter:url(#Adobe_OpacityMaskFilter);}
	.st2{mask:url(#mask0_1036_41761_00000131350005042326819690000005183340865859058087_);}
	.st3{fill:#FFFFFF;filter:url(#Adobe_OpacityMaskFilter_00000152248665870400649260000007315943675802548375_);}
	.st4{mask:url(#mask1_1036_41761_00000004524650005394466720000015994039920288035480_);}
	.st5{fill:none;}
	.st6{fill:url(#SVGID_1_);}
	.st7{fill:#D0EBF6;}
	.st8{fill:#FFFFFF;}
	.st9{fill:#FF00FF;}
	.st10{fill:none;stroke:#0033A1;stroke-width:0.5;stroke-miterlimit:10;}
	.st11{fill:url(#SVGID_00000088819707897622661620000008708594290266303898_);}
	.st12{fill:#FFFFFF;filter:url(#Adobe_OpacityMaskFilter_00000153674264533890393030000011600835163121360574_);}
	.st13{mask:url(#mask2_1036_41761_00000003089680267146038810000002258803883808288669_);}
	.st14{fill:#FFFFFF;filter:url(#Adobe_OpacityMaskFilter_00000172432666648190933280000000232853590206081976_);}
	.st15{mask:url(#mask3_1036_41761_00000089547231080898982720000009409855271704645286_);}
	.st16{fill:#FFFFFF;filter:url(#Adobe_OpacityMaskFilter_00000024690216319701911080000000479257401060560811_);}
	.st17{mask:url(#mask4_1036_41761_00000141454942326607893570000002236982989174921121_);}
	
		.st18{fill:url(#SVGID_00000126286957916724782990000002914163089261726091_);stroke:#0033A1;stroke-width:0.5;stroke-linejoin:round;}
	
		.st19{fill:url(#SVGID_00000007408723033141338770000006861852818693595819_);stroke:#331413;stroke-width:0.5;stroke-linejoin:round;}
	
		.st20{fill:url(#SVGID_00000165214945897796322000000013140396131581939335_);stroke:#331413;stroke-width:0.5;stroke-linejoin:round;}
	
		.st21{fill:url(#SVGID_00000016755652579825104930000017914865342235280060_);stroke:#331413;stroke-width:0.5;stroke-linejoin:round;}
	.st22{fill:#54C0E8;stroke:#331413;stroke-width:0.5;stroke-miterlimit:10;}
	.st23{fill:#331413;}
	.st24{fill:#0C091A;}
	.st25{fill:none;stroke:#331413;stroke-width:0.5;stroke-linejoin:round;}
	.st26{fill:none;stroke:#331413;stroke-width:0.5;stroke-miterlimit:10;}
	.st27{fill:#54C0E8;stroke:#331413;stroke-width:0.5;stroke-linejoin:round;}
	.st28{fill:#FFFFFF;filter:url(#Adobe_OpacityMaskFilter_00000013165012297583000890000007521624471118103427_);}
	.st29{mask:url(#mask5_1036_41761_00000143580245305118338840000012954916041852478642_);}
	.st30{fill:#FFFFFF;filter:url(#Adobe_OpacityMaskFilter_00000096051809867169702710000014158668068791876513_);}
	.st31{mask:url(#mask6_1036_41761_00000057862185532700941190000007117809336920871604_);}
	.st32{fill:url(#SVGID_00000053507820947216394170000004149096371325046913_);}
	.st33{fill:#54C0E8;}
	.st34{fill:#FFFFFF;filter:url(#Adobe_OpacityMaskFilter_00000019668652617219512130000015044895292497327762_);}
	.st35{mask:url(#mask7_1036_41761_00000100353876693258665740000009213340746244262049_);}
	.st36{fill:#FFFFFF;filter:url(#Adobe_OpacityMaskFilter_00000043445840345839482570000000705602719238290323_);}
	.st37{mask:url(#mask8_1036_41761_00000159432072278200292780000012781583253644957110_);}
	.st38{fill:url(#SVGID_00000132780774193988630890000006060349486347712395_);}
	.st39{fill:none;stroke:#FFFFFF;stroke-width:0.5;}
	.st40{fill:url(#SVGID_00000117640781722545550200000001563144347619583166_);}
	.st41{fill:url(#SVGID_00000150097992891601192960000015554554622793774987_);}
	.st42{fill:#FFFFFF;filter:url(#Adobe_OpacityMaskFilter_00000144330442995017712830000009033037059486016904_);}
	.st43{mask:url(#mask9_1036_41761_00000142872092049966863690000008143253991130718102_);}
	.st44{fill:#FFFFFF;filter:url(#Adobe_OpacityMaskFilter_00000160871745951284190330000015341660358859427716_);}
	.st45{mask:url(#mask10_1036_41761_00000114781650557735384850000015458378674330661559_);}
	.st46{fill:#FFFFFF;filter:url(#Adobe_OpacityMaskFilter_00000133498930825244989370000000723280195656205714_);}
	.st47{mask:url(#mask11_1036_41761_00000085221416863983630790000013724967649575919540_);}
	
		.st48{fill:url(#SVGID_00000146487706056808187190000000933784785564512950_);stroke:#0C091A;stroke-width:0.5;stroke-miterlimit:10;}
	
		.st49{fill:url(#SVGID_00000080198068581691707600000001883003953264767386_);stroke:#0C091A;stroke-width:0.5;stroke-linejoin:round;}
	
		.st50{fill:url(#SVGID_00000013900205049815846950000002509371779273667212_);stroke:#0C091A;stroke-width:0.5;stroke-linejoin:round;}
	
		.st51{fill:url(#SVGID_00000183229948295236038360000014021719490553577351_);stroke:#0C091A;stroke-width:0.5;stroke-linejoin:round;}
	.st52{fill:#955243;}
	.st53{fill:#0034A7;}
	.st54{fill:#FFFFFF;filter:url(#Adobe_OpacityMaskFilter_00000041987537656860581810000015118676954612614829_);}
	.st55{mask:url(#mask12_1036_41761_00000088126212519324352760000015070600715896484011_);}
	.st56{fill:#FFFFFF;filter:url(#Adobe_OpacityMaskFilter_00000002386204207264232350000005949113815101333162_);}
	.st57{mask:url(#mask13_1036_41761_00000019676404284113802780000013687004114822913955_);}
	.st58{fill:none;stroke:#0034A7;stroke-width:0.5;stroke-linejoin:round;}
	.st59{fill:none;stroke:#0034A7;stroke-width:0.5;stroke-miterlimit:10;}
	.st60{fill:#FFFFFF;filter:url(#Adobe_OpacityMaskFilter_00000111879490272852307720000000089791284808730526_);}
	.st61{mask:url(#mask14_1036_41761_00000033360293846446332020000018249686241984974245_);}
	.st62{fill:#FFFFFF;filter:url(#Adobe_OpacityMaskFilter_00000125602063006062534110000007607565873110694318_);}
	.st63{mask:url(#mask15_1036_41761_00000183227487801229463040000017137930244458546367_);}
	.st64{fill:#FFFFFF;filter:url(#Adobe_OpacityMaskFilter_00000062883680123286453820000016288576900304803494_);}
	.st65{mask:url(#mask16_1036_41761_00000177447598997027211790000005222493524856405423_);}
	.st66{fill:#FFFFFF;filter:url(#Adobe_OpacityMaskFilter_00000183959397522507134160000001500196935864061117_);}
	.st67{mask:url(#mask17_1036_41761_00000133512577156964114320000003310265323910877587_);}
	.st68{fill:none;stroke:#0C091A;stroke-width:0.5;stroke-linejoin:round;}
	.st69{fill:url(#SVGID_00000048476709778449988470000017788384398270764223_);}
	.st70{fill:url(#SVGID_00000056405042327094193500000002048703269049177769_);}
	.st71{fill:none;stroke:#0C091A;stroke-width:0.5;stroke-miterlimit:10;}
	.st72{fill:url(#SVGID_00000027596863451572064650000007822008176616544678_);}
	.st73{fill:url(#SVGID_00000114778444693812621030000005810357948336857522_);}
	.st74{fill:#0C091A;stroke:#0C091A;stroke-width:0.5;stroke-miterlimit:10;}
	
		.st75{fill:url(#SVGID_00000173841175050107194600000014463427203197960893_);stroke:#0C091A;stroke-width:0.5;stroke-miterlimit:10;}
	
		.st76{fill:url(#SVGID_00000073723682914547678660000009373568143238683529_);stroke:#0C091A;stroke-width:0.5;stroke-miterlimit:10;}
	.st77{fill:url(#SVGID_00000132794067681780775130000011881346322358406787_);}
	.st78{fill:url(#SVGID_00000117677937127650695030000008757669553643953067_);}
</style>
<path class="st0" d="M197.2,169c77.6-58.5,128.9-121.4,114.5-140.4c-14.4-19-88.9,13.1-166.6,71.6C67.5,158.8,16.2,221.6,30.6,240.6
	C45,259.6,119.6,227.5,197.2,169z"/>
<path class="st0" d="M289.4,273.8c17.7-16-20.9-87.3-86.2-159.2C137.9,42.6,70.6-2.8,52.9,13.2c-17.7,16,20.9,87.3,86.2,159.2
	C204.4,244.4,271.7,289.8,289.4,273.8z"/>
<defs>
	<filter id="Adobe_OpacityMaskFilter" filterUnits="userSpaceOnUse" x="51.9" y="24.4" width="238.6" height="238.1">
		<feColorMatrix  type="matrix" values="1 0 0 0 0  0 1 0 0 0  0 0 1 0 0  0 0 0 1 0"/>
	</filter>
</defs>
<mask maskUnits="userSpaceOnUse" x="51.9" y="24.4" width="238.6" height="238.1" id="mask0_1036_41761_00000131350005042326819690000005183340865859058087_">
	<path class="st1" d="M171.2,260.4c64.7,0,117.1-52.3,117.1-116.9c0-64.5-52.4-116.9-117.1-116.9S54.1,79,54.1,143.5
		C54.1,208,106.5,260.4,171.2,260.4z"/>
</mask>
<g class="st2">
	<defs>
		
			<filter id="Adobe_OpacityMaskFilter_00000134939242417636696740000004269884456700869557_" filterUnits="userSpaceOnUse" x="51.9" y="24.4" width="238.6" height="238.1">
			<feColorMatrix  type="matrix" values="1 0 0 0 0  0 1 0 0 0  0 0 1 0 0  0 0 0 1 0"/>
		</filter>
	</defs>
	
		<mask maskUnits="userSpaceOnUse" x="51.9" y="24.4" width="238.6" height="238.1" id="mask1_1036_41761_00000004524650005394466720000015994039920288035480_">
		<path style="fill:#FFFFFF;filter:url(#Adobe_OpacityMaskFilter_00000134939242417636696740000004269884456700869557_);" d="
			M290.3,24.6H52v237.9h238.4V24.6z"/>
	</mask>
	<g class="st4">
		<rect x="51.9" y="24.4" class="st5" width="238.6" height="238.1"/>
	</g>
</g>
<radialGradient id="SVGID_1_" cx="-531.6772" cy="526.4749" r="1" gradientTransform="matrix(147.167 0 0 -146.873 78416.5 77468.4844)" gradientUnits="userSpaceOnUse">
	<stop  offset="0" style="stop-color:#FFFFFF;stop-opacity:0"/>
	<stop  offset="0.7837" style="stop-color:#54C0E8"/>
</radialGradient>
<path class="st6" d="M171.2,260.4c64.7,0,117.1-52.3,117.1-116.9c0-64.5-52.4-116.9-117.1-116.9S54.1,79,54.1,143.5
	C54.1,208.1,106.5,260.4,171.2,260.4z"/>
<g>
	<path class="st7" d="M271.9,32.5c3.3,0,5.9-2.6,5.9-5.9c0-3.3-2.6-5.9-5.9-5.9s-5.9,2.6-5.9,5.9C266,29.9,268.6,32.5,271.9,32.5z"
		/>
</g>
<g>
	<path class="st8" d="M52.9,17.1c2.2,0,3.9-1.8,3.9-3.9s-1.8-3.9-3.9-3.9c-2.2,0-3.9,1.8-3.9,3.9S50.8,17.1,52.9,17.1z"/>
</g>
<g>
	<path class="st9" d="M48.7,250c2.2,0,3.9-1.8,3.9-3.9c0-2.2-1.8-3.9-3.9-3.9s-3.9,1.8-3.9,3.9C44.7,248.2,46.5,250,48.7,250z"/>
</g>
<g>
	<path class="st9" d="M314.1,40.4c2.2,0,3.9-1.8,3.9-3.9c0-2.2-1.8-3.9-3.9-3.9c-2.2,0-3.9,1.8-3.9,3.9
		C310.2,38.6,311.9,40.4,314.1,40.4z"/>
</g>
<path class="st10" d="M333.4,118c0,18-72.8,32.8-162.5,33C81.2,151.1,8.4,136.6,8.4,118.6"/>
<linearGradient id="SVGID_00000158723577513141214470000001252916241483460765_" gradientUnits="userSpaceOnUse" x1="64.7076" y1="232.6994" x2="92.0716" y2="76.6493" gradientTransform="matrix(1 0 0 -1 0 288)">
	<stop  offset="1.000000e-02" style="stop-color:#54BFE7"/>
	<stop  offset="0.46" style="stop-color:#0033A1"/>
	<stop  offset="1" style="stop-color:#231F20"/>
</linearGradient>
<path style="fill:url(#SVGID_00000158723577513141214470000001252916241483460765_);" d="M78.9,69.6L78.9,69.6c0,0,0.1,0,0.1,0
	c0,0,0.1,0,0.1,0v0c18.9,3.5,38.1,7,57.4,9c0,0,3.2,42.8,5.5,72.1c4.7,49.7-57.9,63.8-62.9,63.9c0,0-0.1,0-0.2,0c0,0-11.1,0-11.1,0
	c-5-0.1-56.7-14.2-51.9-63.9c2.3-29.3,5.5-69.4,5.5-69.4c16-1.6,30.8-8.2,46.5-11.6L78.9,69.6L78.9,69.6z"/>
<g>
	<path class="st7" d="M67.8,69.6L67.8,69.6c0,0,0.1,0,0.1,0c0,0,0.1,0,0.1,0v0c18.9,3.5,38.1,9.7,57.4,11.6c0,0,3.2,40.2,5.5,69.4
		c4.7,49.7-57.9,63.8-62.9,63.9c0,0-0.1,0-0.2,0c-0.1,0-0.2,0-0.2,0c-5-0.1-67.6-14.2-62.9-63.9c2.3-29.3,5.5-69.4,5.5-69.4
		C29.7,79.3,48.9,73.1,67.8,69.6z"/>
</g>
<defs>
	
		<filter id="Adobe_OpacityMaskFilter_00000158748990028034161630000009750968767817927829_" filterUnits="userSpaceOnUse" x="9.2" y="75.2" width="117.7" height="134.1">
		<feColorMatrix  type="matrix" values="1 0 0 0 0  0 1 0 0 0  0 0 1 0 0  0 0 0 1 0"/>
	</filter>
</defs>
<mask maskUnits="userSpaceOnUse" x="9.2" y="75.2" width="117.7" height="134.1" id="mask2_1036_41761_00000003089680267146038810000002258803883808288669_">
	<path style="fill:#FFFFFF;filter:url(#Adobe_OpacityMaskFilter_00000158748990028034161630000009750968767817927829_);" d="
		M67.9,77.2L67.9,77.2c0,0,0.1,0,0.1,0c0,0,0.1,0,0.1,0v0c16.9,3.1,34.1,8.7,51.5,10.4c0,0,2.8,36,4.9,62.2
		c4.3,44.5-51.9,57.2-56.3,57.2c0,0-0.1,0-0.1,0c-0.1,0-0.1,0-0.1,0c-4.5-0.1-60.6-12.7-56.3-57.2c2.1-26.2,4.9-62.2,4.9-62.2
		C33.8,85.9,51,80.3,67.9,77.2L67.9,77.2z"/>
</mask>
<g class="st13">
	<defs>
		
			<filter id="Adobe_OpacityMaskFilter_00000055690566272951572550000003686488679527355532_" filterUnits="userSpaceOnUse" x="9.2" y="75.2" width="117.7" height="134.1">
			<feColorMatrix  type="matrix" values="1 0 0 0 0  0 1 0 0 0  0 0 1 0 0  0 0 0 1 0"/>
		</filter>
	</defs>
	
		<mask maskUnits="userSpaceOnUse" x="9.2" y="75.2" width="117.7" height="134.1" id="mask3_1036_41761_00000089547231080898982720000009409855271704645286_">
		<path style="fill:#FFFFFF;filter:url(#Adobe_OpacityMaskFilter_00000055690566272951572550000003686488679527355532_);" d="
			M126.7,75.2H9.3v133.9h117.4V75.2z"/>
	</mask>
	<g class="st15">
		<rect x="9.2" y="75.2" class="st5" width="117.7" height="134.1"/>
	</g>
</g>
<defs>
	
		<filter id="Adobe_OpacityMaskFilter_00000049911314763467115530000018396680740179814075_" filterUnits="userSpaceOnUse" x="32.1" y="86.8" width="86" height="120.6">
		<feColorMatrix  type="matrix" values="1 0 0 0 0  0 1 0 0 0  0 0 1 0 0  0 0 0 1 0"/>
	</filter>
</defs>
<mask maskUnits="userSpaceOnUse" x="32.1" y="86.8" width="86" height="120.6" id="mask4_1036_41761_00000141454942326607893570000002236982989174921121_">
	<path style="fill:#FFFFFF;filter:url(#Adobe_OpacityMaskFilter_00000049911314763467115530000018396680740179814075_);" d="
		M67.8,77.6L67.8,77.6c0,0,0.1,0,0.1,0c0,0,0.1,0,0.1,0v0c17,3.1,34.2,8.7,51.6,10.4c0,0,2.8,35.9,4.9,62.1
		c4.3,44.4-51.9,57-56.4,57.1c0,0-0.1,0-0.1,0c-0.1,0-0.1,0-0.1,0c-4.5-0.1-60.7-12.7-56.4-57.1c2.1-26.2,4.9-62.1,4.9-62.1
		C33.6,86.3,50.8,80.7,67.8,77.6z"/>
</mask>
<g class="st17">
	
		<linearGradient id="SVGID_00000042695635641731769790000015769503423070558084_" gradientUnits="userSpaceOnUse" x1="57.443" y1="150.0221" x2="85.258" y2="150.0241" gradientTransform="matrix(1 0 0 -1 0 288)">
		<stop  offset="0" style="stop-color:#54C0E8"/>
		<stop  offset="1" style="stop-color:#0071CE"/>
	</linearGradient>
	
		<path style="fill:url(#SVGID_00000042695635641731769790000015769503423070558084_);stroke:#0033A1;stroke-width:0.5;stroke-linejoin:round;" d="
		M69.5,137.8l-0.1,0.3c0.1,0,0.1,0,0.1,0V137.8z"/>
	
		<linearGradient id="SVGID_00000178902116175297206920000012033087219877818533_" gradientUnits="userSpaceOnUse" x1="57.4766" y1="143.0746" x2="85.2177" y2="143.0756" gradientTransform="matrix(1 0 0 -1 0 288)">
		<stop  offset="0" style="stop-color:#54C0E8"/>
		<stop  offset="1" style="stop-color:#0071CE"/>
	</linearGradient>
	
		<path style="fill:url(#SVGID_00000178902116175297206920000012033087219877818533_);stroke:#331413;stroke-width:0.5;stroke-linejoin:round;" d="
		M57.5,156.3c0,0,14.2-6.6,27.7-4.4l-3-18.3l-12.7,3.6l-0.1,0.9L57.5,156.3L57.5,156.3z"/>
	
		<linearGradient id="SVGID_00000049201269872198740280000005641084109206699684_" gradientUnits="userSpaceOnUse" x1="66.4794" y1="153.9397" x2="79.2624" y2="53.0337" gradientTransform="matrix(1 0 0 -1 0 288)">
		<stop  offset="0.2458" style="stop-color:#D0EBF6"/>
		<stop  offset="0.6394" style="stop-color:#54C0E8"/>
		<stop  offset="0.9231" style="stop-color:#0071CE"/>
	</linearGradient>
	
		<path style="fill:url(#SVGID_00000049201269872198740280000005641084109206699684_);stroke:#331413;stroke-width:0.5;stroke-linejoin:round;" d="
		M90.4,133.6l-8,0l-0.1,0l3,18.2c-13.5-2.1-27.7,4.4-27.7,4.4l11.9-18.2c-0.9,0-7.7,0-11.9,9.3l-17.3,32c0,0-6,11.9,7.1,11.7
		c0,0,5.3-0.4,9.7-2.4l0,18.3l31.2,0l-0.1-11.8l12.9-43.7C101.2,151.7,106,133.4,90.4,133.6L90.4,133.6z"/>
	
		<linearGradient id="SVGID_00000160185833346607035050000000659530574748098947_" gradientUnits="userSpaceOnUse" x1="76.1509" y1="190.5952" x2="76.1529" y2="150.7923" gradientTransform="matrix(1 0 0 -1 0 288)">
		<stop  offset="0" style="stop-color:#C48856"/>
		<stop  offset="1" style="stop-color:#D7A369"/>
	</linearGradient>
	
		<path style="fill:url(#SVGID_00000160185833346607035050000000659530574748098947_);stroke:#331413;stroke-width:0.5;stroke-linejoin:round;" d="
		M82.4,128.9c0,0,3.1-1.8,3.3-3.2c0.2-1.4,1-5.3,1-5.3s5.2,1.7,6-4.3c0.8-5.9-3.8-7.2-6.3-4.3l0.2-4.4c0,0,1-9.9-15.3-9.9
		c-16.4,0-10.7,14.9-10.7,14.9s0.4,10.4,1.6,13.2c1.2,2.8,5.4,8.2,7.5,8.6v3.1l0.2-0.1v0l12.5-3.6v0l0.1,0V128.9L82.4,128.9z"/>
	<path class="st22" d="M57.1,188.8c-4.4,2-9.7,2.4-9.7,2.4c-8.7,0.1-9-5.1-8.2-8.6c0.4-1.8,1.1-3.1,1.1-3.1l13.6-25.3l3.6-6.7l1,7.8
		c0,0-3.6,6.9-3.8,17.9l-0.1,4.6l17.5-5.7l0.4,10.7L57.1,188.8L57.1,188.8z"/>
	<path class="st23" d="M76.6,116c0.6,0,1.1-0.8,1.1-1.8c0-1-0.5-1.8-1.1-1.8c-0.6,0-1.1,0.8-1.1,1.8C75.6,115.1,76.1,116,76.6,116z"
		/>
	<path class="st23" d="M66.2,118.5c0.6,0,1.1-0.8,1.1-1.8c0-1-0.5-1.8-1.1-1.8s-1.1,0.8-1.1,1.8C65.1,117.7,65.6,118.5,66.2,118.5z"
		/>
	<path class="st23" d="M70.5,121c-1.9-0.9-1.5-3.5,0-4.5c-0.1,0.2-0.2,0.4-0.2,0.6C69.7,118.4,69.6,119.8,70.5,121z"/>
	<path class="st24" d="M69.3,126.7c2,1.3,4.9-0.6,6.6-1.6c0.7-0.4,1.4-0.9,2.1-1.3c-0.6,0.6-1.2,1.2-1.8,1.7
		C74.6,126.7,71.1,128.6,69.3,126.7z"/>
	<path class="st23" d="M73.8,110c1.5-1,4.8-2.1,6.1-0.4c-0.9-0.6-2-0.4-3-0.3C75.9,109.5,74.9,109.8,73.8,110z"/>
	<path class="st25" d="M46.2,181.2l8.5-3.4"/>
	<path class="st26" d="M58.9,183.5c0,0-18.8,6.8-19.7-0.9"/>
	<path class="st23" d="M67.9,111.5c-1.8,0-3.4,0.3-4.8,1.4C63.9,111.2,66.3,110.6,67.9,111.5z"/>
	<path class="st27" d="M97.6,158.2l-18.6,27.6c-2.9,3.5-7.6,3.5-17.8-1.4c-10.2-4.9-12.6-4.1-12.6-4.1c2.4-12.7,22.2-4.9,22.2-4.9
		l19.8-41.9c15.6-0.1,10.8,18.1,10.8,18.1L97.6,158.2L97.6,158.2z"/>
	<defs>
		
			<filter id="Adobe_OpacityMaskFilter_00000026132790341728750600000001415900670479598976_" filterUnits="userSpaceOnUse" x="50.2" y="136" width="21.3" height="23.3">
			<feColorMatrix  type="matrix" values="1 0 0 0 0  0 1 0 0 0  0 0 1 0 0  0 0 0 1 0"/>
		</filter>
	</defs>
	
		<mask maskUnits="userSpaceOnUse" x="50.2" y="136" width="21.3" height="23.3" id="mask5_1036_41761_00000143580245305118338840000012954916041852478642_">
		<path style="fill:#FFFFFF;filter:url(#Adobe_OpacityMaskFilter_00000026132790341728750600000001415900670479598976_);" d="
			M64.2,151.5c6.9-9,5.3-13.3,5.3-13.3s-7.1-1.9-11.5,8.1l-5.6,11.1C52.2,157.3,60.5,156.3,64.2,151.5L64.2,151.5z"/>
	</mask>
	<g class="st29">
		<defs>
			
				<filter id="Adobe_OpacityMaskFilter_00000100377918469502449650000014027776694068331180_" filterUnits="userSpaceOnUse" x="50.2" y="136" width="21.3" height="23.3">
				<feColorMatrix  type="matrix" values="1 0 0 0 0  0 1 0 0 0  0 0 1 0 0  0 0 0 1 0"/>
			</filter>
		</defs>
		
			<mask maskUnits="userSpaceOnUse" x="50.2" y="136" width="21.3" height="23.3" id="mask6_1036_41761_00000057862185532700941190000007117809336920871604_">
			<path style="fill:#FFFFFF;filter:url(#Adobe_OpacityMaskFilter_00000100377918469502449650000014027776694068331180_);" d="
				M71.6,136.1l-21.3,0l0,23.2l21.3,0L71.6,136.1z"/>
		</mask>
		<g class="st31">
			<rect x="50.2" y="136" class="st5" width="21.3" height="23.3"/>
		</g>
	</g>
	<path class="st25" d="M64.2,151.5c6.9-9,5.3-13.3,5.3-13.3s-7.1-1.9-11.5,8.1l-5.6,11.1C52.2,157.3,60.5,156.3,64.2,151.5
		L64.2,151.5z"/>
	
		<linearGradient id="SVGID_00000181771919244311297030000002065860543232595121_" gradientUnits="userSpaceOnUse" x1="58.6756" y1="145.7858" x2="58.6766" y2="136.9387" gradientTransform="matrix(1 0 0 -1 0 288)">
		<stop  offset="0" style="stop-color:#CC27B0"/>
		<stop  offset="1" style="stop-color:#FF00FF"/>
	</linearGradient>
	<path style="fill:url(#SVGID_00000181771919244311297030000002065860543232595121_);" d="M61.5,147.1c0.5-1.8,0.2-3.6-0.8-4.8
		c-1.2,1.3-2.3,3-3.2,5.2l-1.8,3.6C58,151.5,60.7,149.7,61.5,147.1L61.5,147.1z"/>
	<path class="st25" d="M56.9,177.4c0,0,7.9,2.9,13.1,5.2c4.9,2.3,12.4-15,12.4-15s6.7-13.6,8.5-14.8"/>
	<path class="st33" d="M73.2,176.4c0,0-3.4-1.3-4.2-1.5L73.2,176.4z"/>
	<path class="st25" d="M73.2,176.4c0,0-3.4-1.3-4.2-1.5"/>
	<defs>
		
			<filter id="Adobe_OpacityMaskFilter_00000170279383870296335700000006846182185671461043_" filterUnits="userSpaceOnUse" x="78" y="131.5" width="26" height="28.7">
			<feColorMatrix  type="matrix" values="1 0 0 0 0  0 1 0 0 0  0 0 1 0 0  0 0 0 1 0"/>
		</filter>
	</defs>
	
		<mask maskUnits="userSpaceOnUse" x="78" y="131.5" width="26" height="28.7" id="mask7_1036_41761_00000100353876693258665740000009213340746244262049_">
		<path style="fill:#FFFFFF;filter:url(#Adobe_OpacityMaskFilter_00000170279383870296335700000006846182185671461043_);" d="
			M101.3,151.7c0,0,4.8-18.3-10.8-18.1h-8c0,0-12.1,22.7,16.7,24.6L101.3,151.7L101.3,151.7z"/>
	</mask>
	<g class="st35">
		<defs>
			
				<filter id="Adobe_OpacityMaskFilter_00000169550780040311276520000013443051599544592294_" filterUnits="userSpaceOnUse" x="78" y="131.5" width="26" height="28.7">
				<feColorMatrix  type="matrix" values="1 0 0 0 0  0 1 0 0 0  0 0 1 0 0  0 0 0 1 0"/>
			</filter>
		</defs>
		
			<mask maskUnits="userSpaceOnUse" x="78" y="131.5" width="26" height="28.7" id="mask8_1036_41761_00000159432072278200292780000012781583253644957110_">
			<path style="fill:#FFFFFF;filter:url(#Adobe_OpacityMaskFilter_00000169550780040311276520000013443051599544592294_);" d="
				M104,131.6l-26,0l0,28.5l26,0L104,131.6z"/>
		</mask>
		<g class="st37">
			<rect x="78" y="131.5" class="st5" width="26" height="28.7"/>
		</g>
	</g>
	<path class="st25" d="M101.3,151.7c0,0,4.8-18.3-10.8-18.1h-8c0,0-12.1,22.7,16.7,24.6L101.3,151.7L101.3,151.7z"/>
	
		<linearGradient id="SVGID_00000028288434654007935830000005875918013721956009_" gradientUnits="userSpaceOnUse" x1="92.8045" y1="147.7534" x2="93.7675" y2="137.3337" gradientTransform="matrix(1 0 0 -1 0 288)">
		<stop  offset="0" style="stop-color:#CC27B0"/>
		<stop  offset="1" style="stop-color:#FF00FF"/>
	</linearGradient>
	<path style="fill:url(#SVGID_00000028288434654007935830000005875918013721956009_);" d="M93.8,150.7c2.5-0.2,4.4-2.8,4.1-5.6
		c-0.3-2.9-2.5-5-5.1-4.8c-2.5,0.2-4.4,2.8-4.1,5.6S91.2,150.9,93.8,150.7z"/>
	<path class="st23" d="M84.4,107.3c0,0,1.7,10.1-3.1,19.5c0,0,5-4.1,5.1-14.7c0,0,5.1-4.1,6.1,1.7c0.9,5.6-3.3,8.1-6.3,6
		c0,0-0.1,1.6-0.9,5.4c0,0,0.1,1.5-2.9,3.7c0,0-1.8,6.6-7.3,10.2L80,147c0,0,16.9-9,14.7-37c-2.2-28-29.5-18.4-34.9-9.6
		c0,0-2.7,3-5.1,12.8c-2.5,9.7-12.3,15.2-15.6,15.4l4.5,6c0,0,5.3-0.2,9.6-3.6c0,0-4.1,4.3-7.5,5.7c0,0,2.7,3.9,4.9,4.4
		c0,0,8.1-3.6,8.5-4c0.4-0.4-3.6,5.2-5.4,6.2l4.7,2.5c0,0,3.4-6.6,11.6-7.6l0-4.3c0,0-2.5,1-7.7-8.5c-0.9-3.2-0.9-9-0.9-13.2
		c0,0,5-2.4,7.8-2.8c0,0,1.3-5.5,3-8.2c0,0-1.1,6.4-1.1,7.7C70.9,109,79.7,106.7,84.4,107.3L84.4,107.3z"/>
	<path class="st25" d="M65.8,131.1c0,0,2.8,4,6.7,2.9c3.9-1,12.3-6.4,12.9-8.4c0.5-2.1,1.3-5.3,1.3-5.3"/>
	<g>
		<path class="st8" d="M32.4,163.4c0.1,0,0.3-0.1,0.2-0.3c0-0.1-0.1-0.3-0.3-0.2c-0.1,0-0.3,0.1-0.2,0.3
			C32.1,163.3,32.3,163.5,32.4,163.4z"/>
	</g>
	<g>
		<path class="st8" d="M84.7,88.4c0.4,0,0.8-0.4,0.7-0.8c0-0.4-0.4-0.8-0.8-0.7s-0.8,0.4-0.7,0.8C83.9,88.1,84.3,88.4,84.7,88.4z"/>
	</g>
	<g>
		<path class="st8" d="M108.5,179.9c0.3,0,0.6-0.3,0.5-0.6c0-0.3-0.3-0.6-0.6-0.5c-0.3,0-0.6,0.3-0.5,0.6
			C107.9,179.7,108.2,179.9,108.5,179.9z"/>
	</g>
	<g>
		<path class="st8" d="M117.6,144.6c0.3,0,0.6-0.3,0.6-0.7c0-0.3-0.3-0.6-0.7-0.6c-0.3,0-0.6,0.3-0.6,0.7
			C116.9,144.3,117.2,144.6,117.6,144.6z"/>
	</g>
	<g>
		<path class="st8" d="M48.5,114.7c0.3,0,0.6-0.3,0.6-0.7s-0.3-0.6-0.7-0.6c-0.3,0-0.6,0.3-0.6,0.7
			C47.8,114.4,48.1,114.7,48.5,114.7z"/>
	</g>
	<g>
		<path class="st8" d="M35.2,181.5c0.3,0,0.6-0.3,0.6-0.7c0-0.3-0.3-0.6-0.7-0.6c-0.3,0-0.6,0.3-0.6,0.7
			C34.5,181.3,34.8,181.5,35.2,181.5z"/>
	</g>
	<g>
		<path class="st8" d="M104.4,125.8c0.7,0.2,0.9,0.4,1.1,1.1c0.2-0.7,0.4-0.9,1.1-1.1c-0.7-0.2-0.9-0.4-1.1-1.1
			C105.4,125.4,105.2,125.6,104.4,125.8z"/>
	</g>
	<g>
		<path class="st8" d="M33.3,100.6c0.7,0.2,0.8,0.3,1,1c0.2-0.7,0.3-0.8,1-1c-0.7-0.2-0.8-0.3-1-1C34.1,100.3,33.9,100.4,33.3,100.6
			z"/>
	</g>
	<path class="st39" d="M115.2,102.1l-0.4,2.4l-2.3,0.1l0.4-2.4L115.2,102.1z"/>
</g>
<linearGradient id="SVGID_00000070107167810596722380000013608998511515682987_" gradientUnits="userSpaceOnUse" x1="48.7188" y1="213.0218" x2="39.8419" y2="93.2122" gradientTransform="matrix(1 0 0 -1 0 288)">
	<stop  offset="0" style="stop-color:#54BDE5"/>
	<stop  offset="1" style="stop-color:#0071CB"/>
</linearGradient>
<path style="fill:url(#SVGID_00000070107167810596722380000013608998511515682987_);" d="M18.4,152c2.3-26,5.3-60.3,5.3-60.3
	C41.7,90.1,61.3,83,79,79.5c-3.6-0.8-7.3-1.6-10.9-2.3v0c0,0-0.1,0-0.1,0c0,0-0.1,0-0.1,0v0C51,80.3,33.8,85.9,16.4,87.7
	c0,0-2.8,36-4.9,62.2c-4.3,44.5,51.9,57.2,56.3,57.2c0,0,0.1,0,0.1,0c0.1,0,0.1,0,0.1,0c0.4,0,1.3-0.1,2.5-0.4
	C51.8,201.7,14.8,186.5,18.4,152L18.4,152z"/>
<linearGradient id="SVGID_00000052095365376909869240000013051250145794687391_" gradientUnits="userSpaceOnUse" x1="262.1051" y1="226.572" x2="287.0731" y2="68.7912" gradientTransform="matrix(1 0 0 -1 0 288)">
	<stop  offset="1.000000e-02" style="stop-color:#54BFE7"/>
	<stop  offset="0.46" style="stop-color:#0033A1"/>
	<stop  offset="1" style="stop-color:#231F20"/>
</linearGradient>
<path style="fill:url(#SVGID_00000052095365376909869240000013051250145794687391_);" d="M328.7,85.6c-12.3-5-51.1-19.4-51.1-19.4
	h-13.2c0,0-33.5,16.5-41,19.4c-7.5,2.8-14.4,8.3-14.4,21.1v63.9c0,12.2,6.9,18.1,14.4,21.1c7.8,3.2,41.5,19.4,41.5,19.4h13.2
	c0,0,38.1-14.7,50.6-19.4c7.5-2.8,10.8-8.3,10.8-21.1v-63.9C339.4,94.5,336.1,88.6,328.7,85.6z"/>
<path class="st7" d="M315.5,85.6c-12.3-5-51.1-19.4-51.1-19.4s-38.1,14.7-50.6,19.4c-7.5,2.8-14.4,8.3-14.4,21.1v63.9
	c0,12.2,6.9,18.1,14.4,21.1c12.3,5,51.1,19.4,51.1,19.4s38.1-14.7,50.6-19.4c7.5-2.8,14.4-8.3,14.4-21.1v-63.9
	C329.8,94.5,322.9,88.6,315.5,85.6z"/>
<defs>
	
		<filter id="Adobe_OpacityMaskFilter_00000008137549800860887960000011394401248528251812_" filterUnits="userSpaceOnUse" x="203.5" y="71.6" width="121.3" height="134.2">
		<feColorMatrix  type="matrix" values="1 0 0 0 0  0 1 0 0 0  0 0 1 0 0  0 0 0 1 0"/>
	</filter>
</defs>
<mask maskUnits="userSpaceOnUse" x="203.5" y="71.6" width="121.3" height="134.2" id="mask9_1036_41761_00000142872092049966863690000008143253991130718102_">
	<path style="fill:#FFFFFF;filter:url(#Adobe_OpacityMaskFilter_00000008137549800860887960000011394401248528251812_);" d="
		M309.9,90.9c-11.1-4.5-46-17.5-46-17.5s-34.3,13.2-45.5,17.5c-6.7,2.6-12.9,7.5-12.9,19v57.5c0,11,6.3,16.3,12.9,19
		c11.1,4.5,46,17.5,46,17.5s34.3-13.2,45.5-17.5c6.7-2.6,12.9-7.5,12.9-19v-57.5C322.8,98.9,316.6,93.6,309.9,90.9L309.9,90.9z"/>
</mask>
<g class="st43">
	<defs>
		
			<filter id="Adobe_OpacityMaskFilter_00000046333825799481429180000014241016726725503369_" filterUnits="userSpaceOnUse" x="203.5" y="71.6" width="121.3" height="134.2">
			<feColorMatrix  type="matrix" values="1 0 0 0 0  0 1 0 0 0  0 0 1 0 0  0 0 0 1 0"/>
		</filter>
	</defs>
	
		<mask maskUnits="userSpaceOnUse" x="203.5" y="71.6" width="121.3" height="134.2" id="mask10_1036_41761_00000114781650557735384850000015458378674330661559_">
		<path style="fill:#FFFFFF;filter:url(#Adobe_OpacityMaskFilter_00000046333825799481429180000014241016726725503369_);" d="
			M324.6,71.6h-121v134.1h121V71.6z"/>
	</mask>
	<g class="st45">
		<rect x="203.5" y="71.6" class="st5" width="121.3" height="134.2"/>
	</g>
</g>
<defs>
	
		<filter id="Adobe_OpacityMaskFilter_00000025429989181375498810000016227305927087820709_" filterUnits="userSpaceOnUse" x="228.5" y="83.9" width="89" height="122.6">
		<feColorMatrix  type="matrix" values="1 0 0 0 0  0 1 0 0 0  0 0 1 0 0  0 0 0 1 0"/>
	</filter>
</defs>
<mask maskUnits="userSpaceOnUse" x="228.5" y="83.9" width="89" height="122.6" id="mask11_1036_41761_00000085221416863983630790000013724967649575919540_">
	<path style="fill:#FFFFFF;filter:url(#Adobe_OpacityMaskFilter_00000025429989181375498810000016227305927087820709_);" d="
		M309.8,90.9c-11.1-4.5-46-17.5-46-17.5s-34.4,13.2-45.6,17.5c-6.7,2.6-13,7.5-13,19v57.5c0,11,6.3,16.3,13,19
		c11.1,4.5,46,17.5,46,17.5s34.4-13.2,45.6-17.5c6.8-2.6,13-7.5,13-19v-57.5C322.8,98.9,316.5,93.6,309.8,90.9L309.8,90.9z"/>
</mask>
<g class="st47">
	
		<linearGradient id="SVGID_00000067914649986925151780000007259692385813782448_" gradientUnits="userSpaceOnUse" x1="259.1215" y1="195.7993" x2="259.1215" y2="140.796" gradientTransform="matrix(1 0 0 -1 0 288)">
		<stop  offset="0" style="stop-color:#F3AEA7"/>
		<stop  offset="1" style="stop-color:#F3BB93"/>
	</linearGradient>
	
		<path style="fill:url(#SVGID_00000067914649986925151780000007259692385813782448_);stroke:#0C091A;stroke-width:0.5;stroke-miterlimit:10;" d="
		M274.4,135.5l-0.2-0.1l-0.3-5.7c1.9-2.4,1.5-8.4,1.5-8.4l0.6-7.3l0.3-5.5c0.3-1.3,0.4-2.6,0.4-4c-0.1-8.3-5.1-7.9-5.1-7.9
		c-6.2-8.7-13.2-1.9-13.2-1.9c-9.8-4.1-12.3,4.8-12.3,4.8c-1.8,0.1-4.4,2.1-4.4,7.7c0,6.6,4.1,10.8,4.1,10.8l2.7,6.8
		c1.5,4,2.8,4.7,2.8,4.7c0.3,1.5,2.9,3.5,2.9,3.5l0.5,3.7l11.5,10.5L274.4,135.5L274.4,135.5z"/>
	
		<linearGradient id="SVGID_00000043422540119319407900000009875636412421569440_" gradientUnits="userSpaceOnUse" x1="247.5694" y1="172.5987" x2="247.5694" y2="164.4029" gradientTransform="matrix(1 0 0 -1 0 288)">
		<stop  offset="0" style="stop-color:#F3AEA7"/>
		<stop  offset="1" style="stop-color:#F3BB93"/>
	</linearGradient>
	
		<path style="fill:url(#SVGID_00000043422540119319407900000009875636412421569440_);stroke:#0C091A;stroke-width:0.5;stroke-linejoin:round;" d="
		M250.7,115.8c0,0-4.2-1.5-6.3,1.7c-1.9,2.9,0.7,6.2,3.7,6.2c2.9,0,3.1-2.3,3.1-2.3L250.7,115.8z"/>
	
		<linearGradient id="SVGID_00000155125103534171361180000008500548389953225621_" gradientUnits="userSpaceOnUse" x1="274.6256" y1="174.4618" x2="274.6256" y2="166.2767" gradientTransform="matrix(1 0 0 -1 0 288)">
		<stop  offset="0" style="stop-color:#F3AEA7"/>
		<stop  offset="1" style="stop-color:#F3BB93"/>
	</linearGradient>
	
		<path style="fill:url(#SVGID_00000155125103534171361180000008500548389953225621_);stroke:#0C091A;stroke-width:0.5;stroke-linejoin:round;" d="
		M270.7,114.7c0,0,3.6-2.5,6.5,0c2.6,2.3,0.9,6.2-2,6.9c-2.8,0.7-3.6-1.4-3.6-1.4L270.7,114.7z"/>
	
		<linearGradient id="SVGID_00000038375824519691432790000002524622290625317308_" gradientUnits="userSpaceOnUse" x1="262.4202" y1="184.7018" x2="262.4202" y2="150.4899" gradientTransform="matrix(1 0 0 -1 0 288)">
		<stop  offset="0" style="stop-color:#F3AEA7"/>
		<stop  offset="1" style="stop-color:#F3BB93"/>
	</linearGradient>
	
		<path style="fill:url(#SVGID_00000038375824519691432790000002524622290625317308_);stroke:#0C091A;stroke-width:0.5;stroke-linejoin:round;" d="
		M263,103.3c-9.5-0.4-12.7,5.7-13.7,11.6c-0.2,1.2-0.2,2.5,0,3.7c0,0.2,0,0.2,0,0.2l2,10.7c0,0,0.4,1.4,2.9,3.5
		c2.4,2.1,8.8,5.2,11.4,4.3c2-0.7,5.3-4,7.5-6.7c1.4-1.6,2.2-3.6,2.3-5.7c0.1-1,0.1-2.3,0-3.7c0,0,0.7-4,0.3-8.7
		C273.9,107.8,270.3,103.6,263,103.3L263,103.3z"/>
	<path class="st52" d="M246.5,120.4c-0.5-1.4-1.3-2.8-2.2-4c-1.4-1.8-3.4-5.3-3-10.3c0.4-4.6,1.4-6.4,4.4-7c0,0,2.5-9,12.5-4.9
		c0,0,7.1-7,13.4,1.9c0,0,5.1-0.4,5.2,8c0,1-0.1,2-0.2,2.9c-0.1,0.8-0.2,1.7-0.3,2.6l-0.2,4.1c0,0-15.1-6-15.3-10.8
		c0.3,5.6-10.1,10.5-11.6,14.3c-0.4,1.1,2.2,11.5,1.8,11.8C250.2,129.6,247.8,123.9,246.5,120.4z"/>
	<path class="st53" d="M255.5,125.1c3.6,0,6.5-2.9,6.5-6.5c0-3.6-2.9-6.5-6.5-6.5c-3.6,0-6.5,2.9-6.5,6.5
		C249,122.2,251.9,125.1,255.5,125.1z"/>
	<defs>
		
			<filter id="Adobe_OpacityMaskFilter_00000146459748066056183550000017905714938973464489_" filterUnits="userSpaceOnUse" x="247.8" y="111" width="15.3" height="15.3">
			<feColorMatrix  type="matrix" values="1 0 0 0 0  0 1 0 0 0  0 0 1 0 0  0 0 0 1 0"/>
		</filter>
	</defs>
	
		<mask maskUnits="userSpaceOnUse" x="247.8" y="111" width="15.3" height="15.3" id="mask12_1036_41761_00000088126212519324352760000015070600715896484011_">
		<path style="fill:#FFFFFF;filter:url(#Adobe_OpacityMaskFilter_00000146459748066056183550000017905714938973464489_);" d="
			M255.5,124.3c3.2,0,5.7-2.6,5.7-5.7c0-3.2-2.6-5.7-5.7-5.7c-3.2,0-5.7,2.6-5.7,5.7C249.8,121.8,252.4,124.3,255.5,124.3z"/>
	</mask>
	<g class="st55">
		<defs>
			
				<filter id="Adobe_OpacityMaskFilter_00000119115150328933212820000010979967940099948721_" filterUnits="userSpaceOnUse" x="247.8" y="111" width="15.3" height="15.3">
				<feColorMatrix  type="matrix" values="1 0 0 0 0  0 1 0 0 0  0 0 1 0 0  0 0 0 1 0"/>
			</filter>
		</defs>
		
			<mask maskUnits="userSpaceOnUse" x="247.8" y="111" width="15.3" height="15.3" id="mask13_1036_41761_00000019676404284113802780000013687004114822913955_">
			<path style="fill:#FFFFFF;filter:url(#Adobe_OpacityMaskFilter_00000119115150328933212820000010979967940099948721_);" d="
				M263.1,111H248v15.1h15.1V111z"/>
		</mask>
		<g class="st57">
			<rect x="247.8" y="111" class="st5" width="15.3" height="15.3"/>
		</g>
	</g>
	<path class="st58" d="M255.5,124.3c3.2,0,5.7-2.6,5.7-5.7c0-3.2-2.6-5.7-5.7-5.7c-3.2,0-5.7,2.6-5.7,5.7
		C249.8,121.8,252.4,124.3,255.5,124.3z"/>
	<path class="st24" d="M264.6,125.6c1.1-1.1,1.3-2.8,0.7-4.1c-0.2-0.5-0.4-0.9-0.7-1.4c0.2,0.2,0.3,0.4,0.5,0.6
		C266.3,122.1,266.4,124.5,264.6,125.6L264.6,125.6z"/>
	<path class="st23" d="M245.9,117.8c-2.4-13.5,3.8-21.3,15.8-20.8c10.5,0.4,13.8,10,14.3,16.8c-1.8-4.8-6-10.2-13.7-10.5
		c-10.9-0.4-14.6,7.4-14.6,15.4c0,0-0.1,3.9,0.5,6C248.3,124.7,246.6,121.1,245.9,117.8L245.9,117.8z"/>
	<path class="st24" d="M266.1,130.2c-2,2-6-0.6-7.7-2.1c-0.3-0.3-0.6-0.5-0.9-0.8c0.7,0.4,1.3,0.9,2,1.3
		C261.3,129.7,264.2,131.6,266.1,130.2z"/>
	<path class="st59" d="M261.6,118.5c0,0,1.2-1,2.8-0.3"/>
	<path class="st53" d="M270.4,123.6c3.6,0,6.5-2.9,6.5-6.5c0-3.6-2.9-6.5-6.5-6.5s-6.5,2.9-6.5,6.5
		C263.9,120.7,266.8,123.6,270.4,123.6z"/>
	<defs>
		
			<filter id="Adobe_OpacityMaskFilter_00000111192479569835463510000016174511662328962694_" filterUnits="userSpaceOnUse" x="262.8" y="109.4" width="15.3" height="15.3">
			<feColorMatrix  type="matrix" values="1 0 0 0 0  0 1 0 0 0  0 0 1 0 0  0 0 0 1 0"/>
		</filter>
	</defs>
	
		<mask maskUnits="userSpaceOnUse" x="262.8" y="109.4" width="15.3" height="15.3" id="mask14_1036_41761_00000033360293846446332020000018249686241984974245_">
		<path style="fill:#FFFFFF;filter:url(#Adobe_OpacityMaskFilter_00000111192479569835463510000016174511662328962694_);" d="
			M270.4,122.8c3.2,0,5.7-2.6,5.7-5.7c0-3.2-2.6-5.7-5.7-5.7c-3.2,0-5.7,2.6-5.7,5.7C264.7,120.2,267.3,122.8,270.4,122.8z"/>
	</mask>
	<g class="st61">
		<defs>
			
				<filter id="Adobe_OpacityMaskFilter_00000003075752857968684110000014246611100622862519_" filterUnits="userSpaceOnUse" x="262.8" y="109.4" width="15.3" height="15.3">
				<feColorMatrix  type="matrix" values="1 0 0 0 0  0 1 0 0 0  0 0 1 0 0  0 0 0 1 0"/>
			</filter>
		</defs>
		
			<mask maskUnits="userSpaceOnUse" x="262.8" y="109.4" width="15.3" height="15.3" id="mask15_1036_41761_00000183227487801229463040000017137930244458546367_">
			<path style="fill:#FFFFFF;filter:url(#Adobe_OpacityMaskFilter_00000003075752857968684110000014246611100622862519_);" d="
				M278,109.5h-15.1v15.1H278V109.5z"/>
		</mask>
		<g class="st63">
			<rect x="262.8" y="109.4" class="st5" width="15.3" height="15.3"/>
		</g>
	</g>
	<path class="st58" d="M270.4,122.8c3.2,0,5.7-2.6,5.7-5.7c0-3.2-2.6-5.7-5.7-5.7c-3.2,0-5.7,2.6-5.7,5.7
		C264.7,120.2,267.3,122.8,270.4,122.8z"/>
	<defs>
		
			<filter id="Adobe_OpacityMaskFilter_00000025425406263055127210000001709035400513032117_" filterUnits="userSpaceOnUse" x="231.1" y="133.6" width="82.8" height="73">
			<feColorMatrix  type="matrix" values="1 0 0 0 0  0 1 0 0 0  0 0 1 0 0  0 0 0 1 0"/>
		</filter>
	</defs>
	
		<mask maskUnits="userSpaceOnUse" x="231.1" y="133.6" width="82.8" height="73" id="mask16_1036_41761_00000177447598997027211790000005222493524856405423_">
		<path style="fill:#FFFFFF;filter:url(#Adobe_OpacityMaskFilter_00000025425406263055127210000001709035400513032117_);" d="
			M310.6,166C310.6,166,310.7,166.1,310.6,166c1.3,1.8,1.7,4.1,1.2,6.2c-1.3,4.7-4.8,14.7-10.7,14.8c-7.7,0.1-11-5.4-11-5.4
			l-0.5,22.9H233l1-49.6c0.1-3.5,1.9-6.8,4.8-8.7l14.7-8.8l1.2-0.7l0-0.1l11.5,10.5l8.3-11.7l13.2,3.2c2.5,0.8,4.6,2.4,6,4.6
			l0.8,1.2l5.1,17.2"/>
	</mask>
	<g class="st65">
		<defs>
			
				<filter id="Adobe_OpacityMaskFilter_00000026129102730540887130000002904048166879409799_" filterUnits="userSpaceOnUse" x="231.1" y="133.6" width="82.8" height="73">
				<feColorMatrix  type="matrix" values="1 0 0 0 0  0 1 0 0 0  0 0 1 0 0  0 0 0 1 0"/>
			</filter>
		</defs>
		
			<mask maskUnits="userSpaceOnUse" x="231.1" y="133.6" width="82.8" height="73" id="mask17_1036_41761_00000133512577156964114320000003310265323910877587_">
			<path style="fill:#FFFFFF;filter:url(#Adobe_OpacityMaskFilter_00000026129102730540887130000002904048166879409799_);" d="
				M313.9,133.7h-82.7v72.7h82.7V133.7z"/>
		</mask>
		<g class="st67">
			<rect x="231.1" y="133.6" class="st5" width="82.8" height="73"/>
		</g>
	</g>
	<path class="st68" d="M310.6,166C310.6,166,310.7,166.1,310.6,166c1.3,1.8,1.7,4.1,1.2,6.2c-1.3,4.7-4.8,14.7-10.7,14.8
		c-7.7,0.1-11-5.4-11-5.4l-0.5,22.9H233l1-49.6c0.1-3.5,1.9-6.8,4.8-8.7l14.7-8.8l1.2-0.7l0-0.1l11.5,10.5l8.3-11.7l13.2,3.2
		c2.5,0.8,4.6,2.4,6,4.6l0.8,1.2l5.1,17.2"/>
	<path class="st53" d="M248.3,161.4c2.1-0.8,7.3-2.4,13.3-1.1c0.6,0.1,1,0.6,1.1,1.1l0.2,1.1c0.1,0.9-0.7,1.7-1.6,1.5
		c-5.2-0.9-9.6,0.3-11.9,1.1c-0.8,0.3-1.7-0.2-1.8-1.1l-0.2-1.2C247.4,162.2,247.8,161.6,248.3,161.4L248.3,161.4z"/>
	
		<linearGradient id="SVGID_00000011002601021903158390000001862701798534495648_" gradientUnits="userSpaceOnUse" x1="279.554" y1="132.558" x2="279.143" y2="120.899" gradientTransform="matrix(1 0 0 -1 0 288)">
		<stop  offset="0" style="stop-color:#CC27B0"/>
		<stop  offset="1" style="stop-color:#FF00FF"/>
	</linearGradient>
	<path style="fill:url(#SVGID_00000011002601021903158390000001862701798534495648_);" d="M284.7,161.5c0.1-3.2-2.2-5.9-5.2-6
		c-3-0.1-5.5,2.4-5.6,5.6c-0.1,3.2,2.2,5.9,5.2,6C282.1,167.2,284.6,164.7,284.7,161.5z"/>
	<path class="st68" d="M243,161.7l1.9,42.9"/>
	<path class="st25" d="M289.5,204.6l1.3-46.4"/>
	<path class="st23" d="M264.1,147.2l-10.7-9.7l1.2-0.8l9.4,8.6c1.1,1,2.8,0.8,3.6-0.4l6.5-9.5l1.6,0.4l-8.1,11.1
		C266.8,148,265.2,148.2,264.1,147.2L264.1,147.2z"/>
	<path class="st25" d="M266.1,147.2l2.2,57.4"/>
	<path class="st8" d="M299.6,161.2l-1,3.7l-1.3,4.8"/>
	<path class="st68" d="M299.6,161.2l-1,3.7l-1.3,4.8"/>
	<path class="st68" d="M296.1,167.5c0,0,1.1-2.5,2.5-2.7"/>
	
		<linearGradient id="SVGID_00000103267332893698716230000005674503422088384917_" gradientUnits="userSpaceOnUse" x1="303.0781" y1="150.4899" x2="303.0781" y2="116.802" gradientTransform="matrix(1 0 0 -1 0 288)">
		<stop  offset="0" style="stop-color:#F3AEA7"/>
		<stop  offset="1" style="stop-color:#F3BB93"/>
	</linearGradient>
	<path style="fill:url(#SVGID_00000103267332893698716230000005674503422088384917_);" d="M311.5,163.1l1.5-4.3
		c1.3-3.4,0.3-5.5,0.3-5.5s2.6-0.7,1.8-2.7c-0.7-1.8-2.4-1.1-2.6-1c0.2-0.1,1.5-0.8,0.7-2.5c-0.6-1.3-1.5-1.4-2-1.3
		c-0.2,0.1-0.3,0.1-0.3,0.1s0.1-0.1,0.3-0.1c0.5-0.2,1.4-0.8,0.9-2.5c-0.8-2.3-3.2-1.1-3.2-1.1c0-1,0-2.4-0.2-3
		c-0.3-0.9-1.1-1.5-2.1-1.6c-3.6-0.2-8.2,0.3-8.2,2.2c0,2.6,6.2,1.4,6.2,1.4c1.1,4.7-3.9,12.4-6.3,7.6c-2.4-4.7-5.3-5.1-5.3-5.1
		s-3.2-0.5-1.5,2.2c1.6,2.7,2.7,4.6,3.8,7.3s5.2,5.1,5.2,5.1l-0.7,2.8c0,0,1.1,7.8,9.5,10L311.5,163.1"/>
	<path class="st71" d="M311.5,163.1l1.5-4.3c1.3-3.4,0.3-5.5,0.3-5.5s2.6-0.7,1.8-2.7c-0.7-1.8-2.4-1.1-2.6-1 M312.5,149.5
		C312.5,149.5,312.5,149.5,312.5,149.5 M312.5,149.5c0.2-0.1,1.5-0.8,0.7-2.5c-0.6-1.3-1.5-1.4-2-1.3 M311.2,145.7
		c-0.2,0.1-0.3,0.1-0.3,0.1S311,145.7,311.2,145.7z M311.2,145.7c0.5-0.2,1.4-0.8,0.9-2.5c-0.8-2.3-3.2-1.1-3.2-1.1c0-1,0-2.4-0.2-3
		c-0.3-0.9-1.1-1.5-2.1-1.6c-3.6-0.2-8.2,0.3-8.2,2.2c0,2.6,6.2,1.4,6.2,1.4c1.1,4.7-3.9,12.4-6.3,7.6c-2.4-4.7-5.3-5.1-5.3-5.1
		s-3.2-0.5-1.5,2.2c1.6,2.7,2.7,4.6,3.8,7.3s5.2,5.1,5.2,5.1l-0.7,2.8c0,0,1.1,7.8,9.5,10l2.4-8.1"/>
	<path class="st53" d="M293.3,135.8l-1.1-1.5l0.2-0.2c0.5-0.4,0.7-1.1,0.4-1.7c-0.4-0.6-1.2-0.7-1.7-0.3l-0.6,0.4
		c0.5-0.9,0.5-2-0.2-2.9c-0.8-1.1-2.4-1.4-3.6-0.6c-1.2,0.8-1.5,2.5-0.7,3.7c0.6,0.9,1.7,1.2,2.6,1.1l-0.5,0.4
		c-0.5,0.4-0.7,1.1-0.4,1.7c0.4,0.6,1.2,0.7,1.7,0.3l0.3-0.2l1,1.5c3.4,4.8,0.2,5.1,1.3,7.7c0.3,0.7,1.1,0.9,1.8,0.5l6.1-4.3
		c0.6-0.4,0.7-1.3,0.1-1.8C298,137.6,296.7,140.6,293.3,135.8L293.3,135.8z"/>
	
		<linearGradient id="SVGID_00000139277166964936631230000012757659807308697479_" gradientUnits="userSpaceOnUse" x1="301.185" y1="129.666" x2="301.185" y2="128.953" gradientTransform="matrix(1 0 0 -1 0 288)">
		<stop  offset="0" style="stop-color:#F3AEA7"/>
		<stop  offset="1" style="stop-color:#F3BB93"/>
	</linearGradient>
	<path style="fill:url(#SVGID_00000139277166964936631230000012757659807308697479_);" d="M302.1,159c0,0-1.4-0.4-1.8-0.7L302.1,159
		z"/>
	<path class="st71" d="M302.1,159c0,0-1.4-0.4-1.8-0.7"/>
	
		<linearGradient id="SVGID_00000048496175684204472930000012338918162854256293_" gradientUnits="userSpaceOnUse" x1="293.1252" y1="144.317" x2="293.1252" y2="141.021" gradientTransform="matrix(1 0 0 -1 0 288)">
		<stop  offset="0" style="stop-color:#F3AEA7"/>
		<stop  offset="1" style="stop-color:#F3BB93"/>
	</linearGradient>
	<path style="fill:url(#SVGID_00000048496175684204472930000012338918162854256293_);" d="M295.3,145c-0.6-0.6-1.4-1-1.9-1.1
		c-0.4-0.1-0.7-0.2-1.1-0.2c-0.8,0-2.1,0.3-0.9,2.3l0.6,1"/>
	<path class="st71" d="M295.3,145c-0.6-0.6-1.4-1-1.9-1.1c-0.4-0.1-0.7-0.2-1.1-0.2c-0.8,0-2.1,0.3-0.9,2.3l0.6,1"/>
	<path class="st74" d="M310.6,167.1c0,0,2.4,5.7-1.2,4.2L310.6,167.1z"/>
	<path class="st58" d="M312.5,149.5C312.5,149.5,312.5,149.5,312.5,149.5"/>
	<path class="st58" d="M311.2,145.7c-0.2,0-0.3,0.1-0.3,0.1S311,145.8,311.2,145.7z"/>
	
		<linearGradient id="SVGID_00000042727759706223770730000012464165227893930383_" gradientUnits="userSpaceOnUse" x1="310.8819" y1="138.9626" x2="310.8819" y2="133.6423" gradientTransform="matrix(1 0 0 -1 0 288)">
		<stop  offset="0" style="stop-color:#F3AEA7"/>
		<stop  offset="1" style="stop-color:#F3BB93"/>
	</linearGradient>
	
		<path style="fill:url(#SVGID_00000042727759706223770730000012464165227893930383_);stroke:#0C091A;stroke-width:0.5;stroke-miterlimit:10;" d="
		M314.2,152.9c0.5-0.2,1.4-0.8,0.9-2.5c-0.8-2.3-3.2-1.1-3.2-1.1s-5.5,1.5-5.3,3.6C306.8,155,310.2,154.7,314.2,152.9z"/>
	
		<linearGradient id="SVGID_00000052099632801485886590000012123832365117284249_" gradientUnits="userSpaceOnUse" x1="307.9024" y1="146.1967" x2="307.9024" y2="140.8771" gradientTransform="matrix(1 0 0 -1 0 288)">
		<stop  offset="0" style="stop-color:#F3AEA7"/>
		<stop  offset="1" style="stop-color:#F3BB93"/>
	</linearGradient>
	
		<path style="fill:url(#SVGID_00000052099632801485886590000012123832365117284249_);stroke:#0C091A;stroke-width:0.5;stroke-miterlimit:10;" d="
		M311.2,145.7c0.5-0.2,1.5-0.8,0.9-2.5c-0.8-2.3-3.2-1.1-3.2-1.1s-5.5,1.5-5.3,3.6C303.8,147.7,307.2,147.5,311.2,145.7z"/>
	
		<linearGradient id="SVGID_00000147899842386884016010000000726337085585188025_" gradientUnits="userSpaceOnUse" x1="308.7242" y1="142.2466" x2="308.7242" y2="136.6603" gradientTransform="matrix(1 0 0 -1 0 288)">
		<stop  offset="0" style="stop-color:#F3AEA7"/>
		<stop  offset="1" style="stop-color:#F3BB93"/>
	</linearGradient>
	<path style="fill:url(#SVGID_00000147899842386884016010000000726337085585188025_);" d="M312.4,149.7c0.5-0.2,1.4-0.8,0.9-2.5
		c-0.8-2.3-3.2-1.1-3.2-1.1s-6.4,2-6.1,4C304.2,152.2,308.5,151.4,312.4,149.7"/>
	<path class="st71" d="M312.4,149.7c0.5-0.2,1.4-0.8,0.9-2.5c-0.8-2.3-3.2-1.1-3.2-1.1s-6.4,2-6.1,4
		C304.2,152.2,308.5,151.4,312.4,149.7"/>
	<g>
		<path class="st8" d="M270.2,85.2c0.4,0,0.6-0.3,0.6-0.7s-0.3-0.6-0.6-0.6c-0.4,0-0.6,0.3-0.6,0.6S269.8,85.2,270.2,85.2z"/>
	</g>
	<g>
		<path class="st8" d="M229.1,103.1c0.4,0,0.7-0.3,0.7-0.7s-0.3-0.7-0.7-0.7c-0.4,0-0.7,0.3-0.7,0.7S228.8,103.1,229.1,103.1z"/>
	</g>
	<g>
		<path class="st8" d="M290.8,124.7c0.4,0,0.7-0.3,0.7-0.7c0-0.4-0.3-0.7-0.7-0.7c-0.4,0-0.7,0.3-0.7,0.7
			C290.2,124.4,290.4,124.7,290.8,124.7z"/>
	</g>
	<g>
		<path class="st8" d="M313.3,124.9c0.7,0.2,0.8,0.4,1,1.1c0.2-0.7,0.4-0.8,1.1-1c-0.7-0.2-0.8-0.4-1-1.1
			C314.2,124.6,314,124.8,313.3,124.9z"/>
	</g>
	<g>
		<path class="st8" d="M241.7,136c1.4,0.5,1.7,0.8,2,2.2c0.5-1.4,0.8-1.7,2.2-2c-1.4-0.5-1.7-0.8-2-2.2
			C243.4,135.4,243.1,135.7,241.7,136z"/>
	</g>
	<path class="st39" d="M303.4,101.8l-0.3,1.5h-1.5l0.3-1.5H303.4z"/>
	<g>
		<path class="st8" d="M317,165.8c0.2,0,0.4-0.2,0.4-0.4s-0.2-0.4-0.4-0.4c-0.2,0-0.4,0.2-0.4,0.4S316.8,165.8,317,165.8z"/>
	</g>
</g>
<linearGradient id="SVGID_00000136394825001089665970000005441805758064579511_" gradientUnits="userSpaceOnUse" x1="236.5752" y1="210.0574" x2="240.2602" y2="103.2089" gradientTransform="matrix(1 0 0 -1 0 288)">
	<stop  offset="0" style="stop-color:#54BDE5"/>
	<stop  offset="1" style="stop-color:#0071CB"/>
</linearGradient>
<path style="fill:url(#SVGID_00000136394825001089665970000005441805758064579511_);" d="M224.5,187c-6.5-2.6-12.6-7.8-12.6-18.5
	v-56c0-11.2,6-16,12.6-18.5c9-3.4,36.7-14.2,46.3-17.9c-4.2-1.6-6.9-2.6-6.9-2.6s-34.3,13.2-45.5,17.5c-6.7,2.6-12.9,7.5-12.9,19
	v57.5c0,11,6.3,16.3,12.9,19c7.5,3,25.9,10,37.1,14.1C243.6,195.3,230.1,189.2,224.5,187L224.5,187z"/>
</svg>
