<svg width="22" height="21" viewBox="0 0 22 21" fill="none" xmlns="http://www.w3.org/2000/svg">
<mask id="mask0_1401_9411" style="mask-type:alpha" maskUnits="userSpaceOnUse" x="0" y="0" width="22" height="21">
<rect x="0.836914" y="0.275757" width="20.6944" height="20" fill="#D9D9D9"/>
</mask>
<g mask="url(#mask0_1401_9411)">
<path d="M20.4972 19.2781V12.6755C20.4972 9.44592 19.778 6.95815 15.8755 6.95815C15.1425 6.9318 14.4159 7.09838 13.7732 7.44013C13.1304 7.78188 12.5956 8.28597 12.2258 8.89865H12.172V7.25979H8.47461V19.2771H12.3284V13.3269C12.3284 11.7598 12.6331 10.2447 14.6413 10.2447C16.618 10.2447 16.6474 12.0329 16.6474 13.4271V19.2781H20.4972Z" fill="#0071CE"/>
<path d="M2.19922 7.25232H6.05912V19.2677H2.19922V7.25232Z" fill="#0071CE"/>
<path d="M4.12704 1.27578C3.6822 1.27384 3.24678 1.39978 2.87607 1.63763C2.50536 1.87548 2.21606 2.2145 2.04489 2.61167C1.87373 3.00884 1.82842 3.44624 1.91471 3.86837C2.00101 4.29049 2.21501 4.67829 2.52957 4.98256C2.84412 5.28683 3.24505 5.49383 3.68145 5.5773C4.11785 5.66077 4.57004 5.61694 4.98065 5.45138C5.39125 5.28581 5.74174 5.00598 5.98763 4.64739C6.23352 4.28881 6.36373 3.86764 6.36172 3.43735C6.36172 2.86406 6.12628 2.31426 5.7072 1.90889C5.28811 1.50352 4.71971 1.27578 4.12704 1.27578V1.27578Z" fill="#0071CE"/>
</g>
</svg>
