<?xml version="1.0" encoding="utf-8"?>
<!-- Generator: Adobe Illustrator 27.0.0, SVG Export Plug-In . SVG Version: 6.00 Build 0)  -->
<svg version="1.1" id="Layer_1" xmlns="http://www.w3.org/2000/svg" xmlns:xlink="http://www.w3.org/1999/xlink" x="0px" y="0px"
	 viewBox="0 0 1287 868" style="enable-background:new 0 0 1287 868;" xml:space="preserve">
<style type="text/css">
	.st0{fill:#4800AF;stroke:#000000;stroke-miterlimit:10;}
	.st1{fill:none;stroke:#54C0E8;stroke-width:0.25;stroke-miterlimit:10;}
	.st2{fill:#0071CE;}
	.st3{fill:#FFFFFF;}
	.st4{fill:#54C0E8;}
	@keyframes rotate {
				from {
					transform:scale(0) rotate(270deg);
                    opacity: 0;
				}
	
				to {
					transform:scale(1) rotate(0);
                    opacity: 1;
				}
			}
			.star path,
			.star circle{
				transform-box: fill-box;
				transform-origin: center;
				animation: rotate 2s cubic-bezier(.17,.67,.22,1.02) alternate infinite forwards;
                opacity:0;
			}

			.star#star2 path,
			.star#star2 cirle{
				animation-delay: 0.5s;
			}
	
			.star#star3 path,
			.star#star3 cirle{
				animation-delay: 0.8s;
			}
	
			.star#star4 path,
			.star#star4 circle{
				animation-delay: 1s;
			}
</style>
<g class="star" id="star2">
	<path class="st1" d="M150.7,59h-11.5l2.4-11.5h11.5L150.7,59z"/>
	<path class="st2" d="M854.1,9.9c6.1,1.7,7.5,3.2,9.2,9.2c1.7-6.1,3.2-7.5,9.2-9.2c-6.1-1.7-7.5-3.2-9.2-9.2
		C861.6,6.7,860.2,8.2,854.1,9.9z"/>
	<circle class="st3" cx="244.2" cy="756.7" r="3.7"/>
	<circle class="st3" cx="786.6" cy="848.6" r="3.7"/>
</g>
<g class="star" id="star4">
	<path class="st2" d="M215.3,775.3c6.1,1.7,7.5,3.2,9.2,9.2c1.7-6.1,3.2-7.5,9.2-9.2c-6.1-1.7-7.5-3.2-9.2-9.2
		C222.8,772.1,221.4,773.5,215.3,775.3z"/>
	<path class="st1" d="M404.9,560.8h-11.5l2.4-11.5h11.5L404.9,560.8z"/>
	<path class="st4" d="M28.4,788H17.5l2.3-10.8h10.9L28.4,788z"/>
	<circle class="st3" cx="7.2" cy="39.2" r="3.7"/>
	<circle class="st3" cx="1038.1" cy="8.1" r="2"/>
	<circle class="st3" cx="311.2" cy="125.3" r="2"/>
</g>
<g class="star" id="star3">
	<path class="st2" d="M0.4,151.2c6.9,2,8.5,3.6,10.5,10.5c2-6.9,3.6-8.5,10.5-10.5c-6.9-2-8.5-3.6-10.5-10.5
		C8.9,147.6,7.3,149.2,0.4,151.2z"/>
	<path class="st1" d="M36.7,798.9H25.9l2.3-10.8H39L36.7,798.9z"/>
	<circle class="st3" cx="400.4" cy="62.3" r="2"/>
	<circle class="st3" cx="416.7" cy="735.9" r="2"/>
</g>
<g class="star" id="star1">
	<path class="st2" d="M1200.7,18.6c4.2,1.2,5.2,2.2,6.4,6.4c1.2-4.2,2.2-5.2,6.4-6.4c-4.2-1.2-5.2-2.2-6.4-6.4
		C1205.9,16.4,1204.9,17.4,1200.7,18.6z"/>
	<circle class="st3" cx="1284.1" cy="854.3" r="2"/>
	<circle class="st3" cx="232.4" cy="108.9" r="3.7"/>
	<path class="st2" d="M655.5,852.3c9.8,2.8,12.1,5.1,14.9,14.9c2.8-9.8,5.1-12.1,14.9-14.9c-9.8-2.8-12.1-5.1-14.9-14.9
		C667.6,847.1,665.3,849.4,655.5,852.3z"/>
</g>
</svg>
